<?xml version="1.0" encoding="UTF-8"?>
<svg id="Layer_1" xmlns="http://www.w3.org/2000/svg" version="1.1" viewBox="0 0 320.94 351.83">
  <defs>
    <style>
      .st0 { fill: #ffffff; }
      .st1 { fill: #c8a84b; }
    </style>
  </defs>
  <path class="st0" d="M0,0l61.06.11-.08,142.99c-12.99,13.92-26.54,29.8-39,44.22,10.08,11.44,28.57,25.09,39.06,36.8l-.05,88.56v39.16s-60.96-.11-60.96-.11L0,0Z"/>
  <path class="st1" d="M293.86,41.6c4.49,2.99,22.39,19.99,27.07,24.36-12.56,12.65-25.02,26.84-37.35,39.8l-103.16,108.01-31.81,33.36c-7.22,7.61-15.16,16.33-22.75,23.4-17.37-18.04-34.97-35.85-52.81-53.42-9.41-9.41-18.68-18.97-27.8-28.67,7.98-8.65,15.39-17.14,23.22-25.86,13.13,11.77,25.83,24.16,38.96,35.96,6.11,5.49,12.26,11.2,18.08,16.99,11.66-10.57,23.06-22.63,34.12-33.95l46.93-48.41,54.46-57.24c11.37-11.85,21.63-22.01,32.84-34.33Z"/>
  <path class="st0" d="M251.83,159.68c1.13,1.28.65,60.83.64,67.1l.06,124.95c-19.8-.16-39.59-.17-59.39-.04-.95-1.02-.61-10.89-.61-12.76l-.03-25.17-.12-91.59,59.45-62.49Z"/>
  <path class="st0" d="M192.72.14l61.45-.04-.17,60.9c-9.29,9.23-23.2,25.22-31.93,35.16-8.66,10.19-20,22.96-29.16,32.56-1.07-41.59-.14-86.72-.19-128.58Z"/>
</svg>
