<?xml version="1.0" encoding="UTF-8"?>
<svg id="Layer_1" xmlns="http://www.w3.org/2000/svg" version="1.1" viewBox="0 0 237.53 304.38">
  <!-- Generator: Adobe Illustrator 30.5.1, SVG Export Plug-In . SVG Version: 2.1.4 Build 3)  -->
  <defs>
    <style>
      .st0 {
        fill: #80a47c;
      }

      .st1 {
        fill: #1b3b30;
      }

      .st2 {
        fill: #8d6e45;
      }

      .st3 {
        fill: #876c46;
      }
    </style>
  </defs>
  <path class="st1" d="M223.38.18c8.23-.92,14.12,1.36,14.14,13.07.06,32.21-.1,64.42-.18,96.64l-.31,194.28-53.07.15-13.62.06c-.17-32.52-1.2-255.86,3.3-269.67,3.25-9.97,40.4-30.22,49.73-34.53h0Z"/>
  <path class="st1" d="M8.69,45.18c11.65-.3,45.18-2.04,53.79,3.74,5.45,7.84,3.89,42.44,3.91,53.72l.14,81.86c-8.8,6.18-17.95,11.65-27.01,17.24-14.48,9.21-25.91,15.82-39.02,27.92-.73-44.23.23-89.2-.34-133.5-.17-13.47-.48-27.93.83-41.2.46-4.66,4.74-7.73,7.69-9.78h0Z"/>
  <path class="st2" d="M138.04,162.04c.61-.12,1.21-.24,1.82-.33,5.06-.78,10.5.54,10.89,8.34.72,14.32.39,28.95.38,43.33l-.11,90.73-51.64-.04-14.48.06c-.77-29-.78-78.53.24-107.22,7.82-9.76,41.56-29.44,52.9-34.86h0Z"/>
  <path class="st0" d="M52.69,217.64c.53-.06,1.06-.14,1.6-.19,3.28-.29,6.94,1.09,9.25,4.09,4.41,5.71,2.16,70.74,2.13,82.23-16.05.43-33.13.08-49.27.09l-15.49.09c-.64-12.41-.53-37.99-.2-50.23,8.85-10.07,40.08-31.91,51.98-36.09h0Z"/>
  <path class="st3" d="M138.37,92.86c14.06,1.77,12.72,11.34,12.73,26.32,0,5.39-.02,11.13-.01,16.55-17.67,11.02-38.23,20.91-56.68,31.85l-8.77,5.28c-.19-9.36-1.49-38.06,1.51-44.52,4.92-10.61,41.78-31.14,51.23-35.48h-.01Z"/>
</svg>