<?xml version="1.0" encoding="UTF-8"?>
<svg id="Layer_1" xmlns="http://www.w3.org/2000/svg" version="1.1" viewBox="0 0 203.05 168.91">
  <!-- Generator: Adobe Illustrator 30.5.1, SVG Export Plug-In . SVG Version: 2.1.4 Build 3)  -->
  <defs>
    <style>
      .st0 {
        fill: #a89060;
      }

      .st1 {
        fill: #2c4a3e;
      }
    </style>
  </defs>
  <path class="st1" d="M9.93.46C22.24-.04,36.96.29,49.45.24l-.08,54.34c-17.66,0-31.44,10.99-41.43,24.62,9.34,11.15,30.17,28.97,41.51,38.53l.02,20.65-.06,30.27c-11.93-.04-29.44.42-40.92-.59-2.54-1.52-7.25-5.65-7.45-8.45-1.96-26.38-.48-57.78-.79-84.01.07-20.75.02-41.52-.02-62.27C.22,6.87,3.82,2.31,9.93.46Z"/>
  <path class="st0" d="M183.44,8.38c7.95-.36,11.99.64,19.61,2.38l-78.67,75.2c-16.66,15.86-33.88,31.03-49.9,47.46-12.13-10.26-23.33-21.27-35.12-31.98-8.08-7.21-16.02-14.57-23.82-22.09,9.51-11.3,15.91-15.56,30.24-18.9l30.17,29.93c20.29-19.91,43.31-38.95,64.43-58.12,12.79-11.61,25.16-22.43,43.05-23.88Z"/>
  <path class="st1" d="M159.72,59.82c.19,1.41.26,3.56.25,5.01-.16,31.06.67,62.2-.07,93.23-.07,3.69-5.34,9.19-8.94,9.7-12.38,1.77-27.55.96-39.97.95-1.51-5.56-.34-53.16-.33-62.17,16.58-15.1,32.64-31.39,49.05-46.72Z"/>
  <path class="st1" d="M110.8.23c12.26.24,27.51-.97,39.46.59,5.22.68,7.92,4.57,10.39,8.8-8.08,4.95-16.57,12.24-23.98,18.33-8.36,6.67-18.14,16-26.07,23.24.26-16.85.15-34.07.21-50.95Z"/>
</svg>