<?xml version="1.0" encoding="UTF-8"?>
<svg id="Layer_1" xmlns="http://www.w3.org/2000/svg" version="1.1" viewBox="0 0 377.58 477.88">
  <!-- Generator: Adobe Illustrator 30.5.1, SVG Export Plug-In . SVG Version: 2.1.4 Build 3)  -->
  <defs>
    <style>
      .st0 {
        fill: #4a2c6e;
      }

      .st1 {
        fill: #c8a84b;
      }
    </style>
  </defs>
  <path class="st0" d="M0,0l56.97.04-.06,330.64v96.25c0,16.39.43,34.38-.07,50.63L.01,477.88V0Z"/>
  <path class="st0" d="M278.79,167.33c1.35,4.22.4,52.55.43,60.17l-.1,250.18-56.15-.03c-.55-3.34-.4-19.3-.41-23.5l-.07-49.75.13-179.7c18.37-17.04,37.06-40.69,56.18-57.39Z"/>
  <path class="st1" d="M376.5,25.34c1.15.9.81.33,1.08,1.74-1.33,2.72-11.98,14.33-14.82,17.56l-37.71,42.56c-63.17,71.3-126.8,142.2-190.9,212.67-15.89-17.79-33.5-36.45-49.86-53.88-4.35-4.46-8.62-9-12.81-13.61,8.42-9.6,17.58-18.49,25.98-28.21,11.52,13.18,26.39,31.06,38.41,43.22,7.28-7.3,14.47-14.67,21.72-21.98,32.12-32.37,66.4-62.82,100.32-93.28l118.57-106.79Z"/>
  <path class="st0" d="M222.45.1l56.7-.04c.23,29.61.29,59.22.16,88.82-4.56,5.97-20.92,21.21-27.22,27.26-9.79,9.55-19.67,19.02-29.63,28.4l-.02-144.44Z"/>
</svg>