<?xml version="1.0" encoding="utf-8" ?><svg xmlns="http://www.w3.org/2000/svg" xmlns:xlink="http://www.w3.org/1999/xlink" width="322" height="296" viewBox="60 81 322 296"><path d="M345.795 91.3534C359.859 89.7922 372.919 102.508 371.914 116.595C371.034 128.925 366.357 138.102 358.787 147.543C344.858 164.916 325.957 177.14 306.769 187.871C303.059 189.941 299.325 191.965 295.565 193.942C292.273 195.667 287.904 197.245 285.225 199.848C285.133 199.938 285.045 200.031 284.954 200.122C280.714 204.349 255.354 306.89 252.148 320.097C249.406 331.394 247.105 342.811 244.202 354.067C243.676 356.104 243.263 359.03 241.255 360.138C240.195 360.724 238.087 360.619 236.958 360.28C236.246 360.066 235.763 359.679 235.432 359.01C234.801 357.732 234.742 356.121 234.832 354.718C235.088 350.701 236.005 346.69 236.719 342.732C238.324 333.836 240.186 325.044 242.056 316.203C242.879 312.314 243.5 308.387 244.32 304.497C248.084 286.763 252.157 269.095 256.535 251.502C260.34 236.294 264.623 221.209 269.378 206.271C262.63 209.914 252.481 213.916 245.363 216.957L214.184 230.496C209.848 232.351 197.81 237.127 194.74 239.275C193.377 241.819 192.138 246.637 191.179 249.603C189.127 255.854 187.025 262.09 184.875 268.308C175.461 294.763 161.17 325.859 142.134 347.025C137.79 351.855 132.105 356.217 126.618 359.679C125.425 360.456 124.206 361.193 122.963 361.889C105.453 371.563 84.2598 366.836 74.4285 348.864C67.4124 336.039 70.7148 317.644 78.0144 305.502C94.3041 278.407 123.27 260.465 150.387 245.719C161.565 239.664 173.862 235.066 185.034 229.02L210.56 139.388L216.535 118.207C217.893 113.266 219.202 108.293 220.768 103.417C221.637 100.709 222.825 98.7581 225.99 99.0517C228.116 99.1422 229.914 101.531 229.443 103.62C228.443 108.049 227.463 112.643 226.273 117.031C220.984 136.532 216.982 156.464 211.91 176.013C209.154 186.287 206.492 196.586 203.925 206.91C202.67 211.847 201.258 216.728 200.21 221.713C205.817 220.571 214.489 216.381 219.936 214.113C229.406 210.232 238.828 206.239 248.203 202.133C252.982 200.048 268.601 193.83 273.685 190.491C274.641 189.863 276.673 184.072 277.145 182.769C287.132 155.227 311.763 94.4505 345.795 91.3534ZM88.7025 350.069C95.7831 356.512 105.038 357.644 113.72 353.775C119.856 351.041 127.446 345.393 131.904 340.279C151.085 318.278 163.273 291.16 173.148 263.963C174.278 260.842 178.711 249.512 178.997 246.866L178.756 246.55L178.475 246.526C168.895 250.31 160.308 254.846 151.237 259.814C126.147 273.554 98.0412 291.099 85.4021 317.888C80.297 328.709 80.3764 341.003 88.7025 350.069ZM290.959 181.813C294.479 180.442 297.687 178.637 300.963 176.772C320.696 165.698 341.963 152.348 354.541 133.009C359.177 125.882 363.175 116.099 358.905 107.851C356.444 103.097 351.284 101.429 346.233 102.084C321.102 105.902 298.49 160.316 290.959 181.813Z"/></svg>