<?xml version="1.0" encoding="utf-8" ?><svg xmlns="http://www.w3.org/2000/svg" xmlns:xlink="http://www.w3.org/1999/xlink" width="389" height="398" viewBox="78 63 389 398"><path d="M307.271 260.959C309.474 256.761 309.518 253.396 310.961 249.096C316.01 234.047 319.858 219.149 326.791 204.789C328.808 200.61 330.026 195.305 331.779 190.954C348.175 153.841 363.525 115.216 393.128 86.2336C395.264 84.3249 397.598 82.5836 399.957 80.9749C441.816 52.4389 459.498 115.454 457.315 145.842C457.117 148.599 457.101 151.627 456.891 154.431C454.942 180.416 442.673 206.752 424.436 225.259C422.034 227.697 420.169 231.153 417.489 233.398C396.035 250.99 368.351 263.404 340.861 267.339C334.998 268.178 330.884 266.814 324.679 269.304C322.907 274.67 321.551 280.18 320.038 285.611C319.193 288.647 318.765 292.822 317.744 295.649C314.341 305.075 312.081 314.345 310.236 324.203C309.317 329.117 307.498 334.246 306.817 339.29C305.459 348.848 303.924 358.571 302.558 368.1C300.561 381.534 299.264 394.911 301.448 408.438C302.409 413.3 303.699 417.76 305.149 422.488C308.353 432.932 309.689 438.694 320.453 442.955C330.234 446.826 338.031 431.851 342.708 431.907C345.001 433.816 337.609 442.88 336 444.426C325.925 454.103 310.838 452.971 301.651 442.705C293.869 433.806 287.969 417.409 285.633 405.781C282.639 390.88 283.724 374.06 286.273 359.211C287.401 352.985 287.581 346.712 288.472 340.463C290.418 327.616 292.974 314.87 296.133 302.267C296.792 299.529 298.179 296.247 298.669 293.659C300.068 286.281 303.987 276.944 304.614 269.685C295.307 268.95 286.572 269.256 277.297 268.865C270.611 268.582 264.106 267.888 257.35 268.061C255.637 268.105 253.453 267.847 251.777 267.947C250.041 271.746 249.538 276.417 248.015 280.28C242.466 294.352 239.303 309.167 233.476 323.138C232.657 325.102 231.521 326.979 230.636 328.907C227.193 336.215 223.948 343.616 220.907 351.1C218.955 355.922 217.118 361.5 214.983 366.089C208.653 379.691 201.703 392.866 193.399 405.38C190.779 409.33 188.753 414.071 186.02 417.997C178.015 429.742 164.507 442.924 150.883 447.588C144.226 449.866 142.989 449.608 135.824 449.921C128.603 448.848 123.892 448.735 118.535 442.771C115.628 439.534 112.696 436.32 110.012 432.879C106.257 428.509 103.211 424.755 101.096 419.233C100.382 417.38 99.7123 415.509 99.0881 413.623C98.3346 411.966 97.6754 410.586 97.1242 408.847C95.9831 406.344 95.4547 404.1 94.804 401.46L93.9859 398.175C92.08 392.057 91.4476 386.461 91.429 380.062C89.0177 363.919 96.5748 340.966 103.38 326.54C104.702 323.739 107.571 320.05 109.415 317.436C123.346 297.69 143.147 282.226 165.811 273.772C167.552 272.974 169.493 272.313 171.227 271.53C179.053 267.996 186.984 266.235 195.398 264.741C200.392 263.97 205.791 262.236 210.794 261.782C219.048 261.032 227.622 259.949 235.851 259.401C237.108 256.063 238.217 251.437 239.516 247.807C241.65 241.903 243.851 236.056 245.95 230.136C248.511 222.912 249.842 215.992 253.94 209.434C254.616 208.351 255.081 203.562 255.958 201.728C259.468 194.392 262.503 186.855 265.844 179.451C267.075 176.788 269.137 174.038 270.268 171.394C274.637 161.175 279.3 152.785 285.664 143.659C281.254 143.833 277.458 144.9 273.21 145.242C260.647 146.11 247.2 145.348 235.264 140.895C222.491 136.129 209.772 130.624 196.955 125.925C189.089 123.041 177.893 120.717 169.52 120.4C158.03 119.965 144.377 122.297 133.89 126.987C130.558 128.395 127.494 130.998 124.529 132.852C117.623 137.171 112.367 141.547 107.703 148.284C106.017 150.718 104.151 152.772 102.594 155.524C96.7378 165.678 94.8544 181.935 100.552 192.599C114.163 218.077 145.506 221.764 169.676 209.996C172.712 208.518 176.113 207.653 179.175 206.079L179.553 206.259C170.274 216.434 157.994 222.967 143.99 223.442C128.773 223.957 113.142 218.755 101.808 208.486C100.272 207.092 95.1292 201.41 94.425 199.738C92.0534 194.109 89.0407 183.144 88.8309 177.21C88.4151 165.452 91.6021 156.688 97.7303 146.983C100.378 142.113 103.398 137.921 107.192 133.888C111.87 128.916 117.181 125.244 123.109 121.932C125.594 120.544 128.417 118.259 130.964 117.137C144.001 111.389 157.874 107.27 172.247 107.408C182.267 107.536 193.011 108.477 202.788 110.704C207.796 112.151 218.46 116.072 223.294 118.194C242.598 126.669 265.426 139.959 287.208 133.918C290.811 132.919 293.282 132.387 296.097 129.634C298.993 126.872 301.872 122.247 306.28 122.104C307.437 122.067 310.507 123.28 310.939 124.078C313.415 128.657 306.231 132.941 303.88 135.981C302.353 137.955 301.584 138.733 300.486 140.198C295.794 146.538 291.551 153.197 287.787 160.127C277.378 179.625 272.344 201.435 264.95 222.131C263.781 225.403 263.231 229.391 262.101 232.722C260.274 237.795 258.853 242.716 257.355 247.892C256.204 251.866 254.852 255.118 254.15 259.263L307.271 260.959ZM116.633 429.807C125.51 440.174 133.576 443.115 146.817 439.56C160.599 435.861 168.463 423.841 175.621 412.45C177.456 409.53 179.635 406.61 181.266 403.584C188.54 390.081 195.861 376.488 201.589 362.24C202.176 360.779 203.363 359.66 204.144 358.309C205.355 356.021 205.994 353.215 207.052 350.89C208.232 348.318 208.302 345.611 209.088 342.934C210.43 338.364 213.579 333.113 214.584 328.551C215.889 322.631 218.107 316.894 219.55 311.128C222.411 299.698 226.714 289.026 229.946 277.723C230.826 274.559 231.995 271.465 232.525 268.22C230.555 268.237 228.585 268.24 226.615 268.229C220.426 268.42 213.322 269.753 207.112 270.748C170.312 276.64 138.792 291.026 116.624 321.929C94.2045 353.182 92.2857 398.886 116.633 429.807ZM327.861 258.924C337.067 257.956 346.214 256.494 355.263 254.546C374.54 250.054 393.465 241.12 409.257 229.169C411.599 227.396 413.617 224.734 415.814 222.805C423.304 216.228 428.113 209.948 433.365 201.508C439.191 192.244 443.69 182.211 446.73 171.699C447.722 168.165 447.992 164.415 448.611 160.813C450.309 150.929 451.011 141.187 450.156 131.224C449.26 120.787 448.068 114.11 443.898 104.469C440.691 97.0568 439.247 89.3262 431.293 84.7424C428.861 83.2809 422.017 80.2142 419.166 80.1917C409.752 81.6746 399.623 90.2718 394.162 97.6473C376.396 121.641 364.196 148.123 354.039 176.081C350.888 184.754 348.309 194.477 344.28 202.9C341.764 208.161 340.329 215.533 337.782 220.993C335.018 232.756 329.299 247.174 327.861 258.924ZM452.264 141.449C453.048 141.511 453.612 141.5 454.363 141.719C454.336 138.337 453.396 136.977 451.632 134.251C451.699 136.354 452.064 139.295 452.264 141.449Z"/><path fill="#504F51" d="M91.429 380.062C91.6262 381.201 91.466 381.483 92.1135 382.166C92.5354 382.075 92.9498 382.009 93.3797 381.971C95.2668 383.334 96.9436 393.65 97.5195 396.474L97.1726 396.318L96.5709 397.142L96.3062 396.381C95.7102 395.879 95.4397 395.613 94.9115 395.067C95.2835 397.567 96.0172 399.355 94.804 401.46L93.9859 398.175C92.08 392.057 91.4476 386.461 91.429 380.062Z"/><path fill="#68686B" d="M93.9859 398.175C94.4549 395.805 94.1398 395.546 94.2703 393.336C94.7649 393.864 94.7108 394.249 94.9115 395.067C95.2835 397.567 96.0172 399.355 94.804 401.46L93.9859 398.175Z"/><path fill="#504F51" d="M101.096 419.233C101.806 418.801 102.168 418.762 102.962 418.57L102.625 419.297C102.984 419.897 102.706 419.724 103.272 419.989C106.517 421.511 111.293 429.409 110.012 432.879C106.257 428.509 103.211 424.755 101.096 419.233Z"/><path fill="#606065" d="M94.9115 395.067C95.4397 395.613 95.7102 395.879 96.3062 396.381L96.5709 397.142L97.1726 396.318L97.5195 396.474C97.8666 398.136 98.2061 399.914 98.5987 401.555C98.5869 402.663 98.7598 402.764 98.2935 403.601L97.4724 403.973C97.7673 406.324 97.5022 406.565 97.1242 408.847C95.9831 406.344 95.4547 404.1 94.804 401.46C96.0172 399.355 95.2835 397.567 94.9115 395.067Z"/><path fill="#7C7B7E" d="M96.5709 397.142L97.1726 396.318L97.5195 396.474C97.8666 398.136 98.2061 399.914 98.5987 401.555C98.5869 402.663 98.7598 402.764 98.2935 403.601L97.4724 403.973C95.9146 401.943 95.3924 399.534 96.5709 397.142Z"/><path fill="#7C7B7E" d="M100.673 409.232C101.216 410.685 102.892 416.548 103.207 418.059L102.962 418.57C102.168 418.762 101.806 418.801 101.096 419.233C100.382 417.38 99.7123 415.509 99.0881 413.623C99.419 411.94 99.5662 410.53 100.673 409.232Z"/><path fill="#68686B" d="M98.5987 401.555C99.5845 404.199 99.5586 406.876 100.673 409.232C99.5662 410.53 99.419 411.94 99.0881 413.623C98.3346 411.966 97.6754 410.586 97.1242 408.847C97.5022 406.565 97.7673 406.324 97.4724 403.973L98.2935 403.601C98.7598 402.764 98.5869 402.663 98.5987 401.555Z"/><path fill="#B3AFAD" d="M452.264 141.449C453.048 141.511 453.612 141.5 454.363 141.719C454.349 143.575 454.854 148.895 453.483 149.941C452.443 149.793 452.381 149.809 451.544 149.22C450.915 148.215 451.791 145.028 451.675 143.675C451.585 142.625 451.672 142.233 452.264 141.449Z"/><path fill="#504F51" fill-opacity="0.98823529" d="M451.632 134.251C453.396 136.977 454.336 138.337 454.363 141.719C453.612 141.5 453.048 141.511 452.264 141.449C452.064 139.295 451.699 136.354 451.632 134.251Z"/><path d="M179.175 206.079C180.729 204.625 181.435 202.163 183.368 201.421L183.699 201.521C183.667 203.424 180.806 204.93 179.553 206.259L179.175 206.079Z"/></svg>