<?xml version="1.0" encoding="UTF-8"?>
<svg id="Layer_1" xmlns="http://www.w3.org/2000/svg" version="1.1" viewBox="0 0 821.64 567.24">
  <!-- Generator: Adobe Illustrator 30.5.1, SVG Export Plug-In . SVG Version: 2.1.4 Build 3)  -->
  <defs>
    <style>
      .st0 {
        fill: #3c6051;
      }
    </style>
  </defs>
  <path class="st0" d="M409.45,1.08c19.15-5.03,24.61,8.89,40.62,12.38,8.96,1.95,21.92-3.26,31.91,2.57,8.7,5.08,8.55,17.69,17.34,20.69,8.59,2.94,18.47-5.1,27.05,1.17,3.18,2.33,5.92,4.87,6.89,9.43-.54,9.79-10.48,11.87-10.68,17.87,11.66,8.58,39.47-3.9,55.43,2.04,14.52,3.18,17.27,23.83,28.81,31.05,10.32,6.45,28.98-.77,36.38,13.37,1.19,8.31-6.16,15.46-7.04,27.24l-.13,1.72c-14.17,18.11-15.8,6.34-30.95,9.21-11.49,2.17-15.7,8.34-29.63,1.83-3.23-1.51-11.23-.94-11.96,4.91,3.76,4.27,14.66,3.51,20.62,5.12,4.08-1.32,18.49,17.08,20.32,16.33,20.65-8.41,61.43-39.24,74.1-.62,3.84,11.72,44.38-4.82,50.63,16.72,6.21,21.41-14.89,25.36-16.44,36.4,5.66,12.21,33.17,1.75,42.01,13.25,4.86,6.32,4.51,9.32,4.8,17.87,9.06,3.41,24.88,12.21,15.4,26.96-13.1,20.38-31.44,4.08-47.19,6.4-4.95.72-14.56,14.57-22.42,11.39-12.55-1.32-17.15-12.36-28.57-12.54-5.57-.08-14.95,8.58-20.32,9.88-9.25,2.23-20.43,2.29-30.09,3.32,19.93,18.44,17.39,12.4,41,8.42,11.93-2.02,10.35,16.52,20.81,15.59,16.79-1.49,31.39-18.7,49.09-11.84,6.01,2.3,14.57,4.53,17.98,11.74,1.64,9.8-8.23,14.29-10.16,22.54,5.4,9.94,24.23-3.02,33.86,2.83,5.61,2.38,5.32,6.72,7.69,12.59,6.12,15.21,28.52,6.8,33.88,22.48,5.13,15.04-8.04,24.07-17.6,28.04-5.41-2.26-9.99-3.82-15.51-5.63-42.73,22.2-43.14-8.66-83.24-15.16-9.85-1.6-25.7,6.75-40.64,6.93,14.72,19.79,21.27,20.96,37.13,7.31,14.37-12.38,30.54,6.07,43.29,11.98,4.83,2.25,13.28,3.11,12.22,13.81-2.63,14.23-20.61,3.78-26.59,4.55-20.35,2.6-32.98,23.1-45.09-10.41-3.21-.42-11.16-.88-13.83-1.76-14.38-4.77-20.95-18.57-36.05-23.22-19.58-6.02-36.76,9.5-52.95,21.56-27.99-2.11-21.96-8.63-42.2-20.82-8.22-4.95-35.55-9.44-44.99-9.31-4.53.06-54.43,27.45-57.77,32.26-1.64,2.35.35,7.02,1.16,9.43,4.36,12.98,1.28,25.53,4.6,38.2,2.31,8.83,9.13,14.86,11.69,23.68,1.53,5.26,1.02,11.8,1.73,17.35.66,5.1,2.73,8.52,6.12,11.41,6.59,5.62,16.45.41,23.97-1.08,4.38,3.96,5.58,4.95,10.5,7.89,5.32-2.79,13.48-9.03,18.94-6.06l.34,1.99c-1.9,2.05-3.78,4.14-5.62,6.28l.05,1.9c7.58,5.69,28.84.96,38.51.37,10.83-1.83,19.85,3.66,30.3,5.81,8.56,1.76,44.71,2.84,49.61,11.19l-1,1.83c-9.71,5.83-126.66,3.52-146.13,3.4-72.09,1.08-144.18,1.6-216.27,1.56-14.25-.1-28.5-.02-42.75.24-8.82.14-22.81.86-31.19-.61l-.72-2.14,1.13-2.29c9.37-6.53,38.69-8.44,50.52-13.34,10.41-4.31,50.66,1.7,56.72-8.21.09-3.6-.18-2.55.74-5.79,9.55-2.95,26.51,4.78,40.33,3.69l1.51-.13c8.86-12.2,11.51-7.68,23.02-3.81,1.49.5,4.33-.35,5.31-2.06,6.27-10.85,11.45-25.37,12.93-38.66.31-6.55-1.82-19.24-2.8-25.63-.57-3.7-2.95-18.69-4.15-21.07-5.75-11.43-18.74-21.3-25.71-32.32-1.98-3.12-9.39-11.12-11.3-11.12-17.17.01-36.49,19.31-53.94,21.15-17.89,1.89-27.85-14.07-44.12-15.16-11.7-.79-23.73,9.01-34.59,12.65-7.01,2.36-13.59,1.4-20.6,1.21-1.22-.04-7.87.06-7.88.1-1.71,6.95-1.32,13.61-6.13,18.76-5.89,6.31-12.95,4.42-19.8,2.49-6.72-1.9-13.26-3.58-20.14-4.24-18.91,13.06-26.35,18.21-47.88,12.02-25.67-26.49,22.97-27.5,26.85-38.2-.9-3.3-.13-2.04-2.29-4.01-11.51-2.34-21.8,6.56-32.89,11.68-13.23,6.1-28.96,11.56-42.89,4.03-5.87-3.18-3.16-13.75-5.04-18.57-2.46-6.3-15.97-4.09-21.01-7.98-3.6-2.27-4.49-5.02-5.94-9.48-2.18-6.73,3.25-12.82,7.53-16.27,4.95-3.99,10.99-7.41,16.3-11.45,4.91-3.73,10.92-9.58,16.46-11.44,6.39-1.44,13.75,1.38,20.59-.6,6.24-6.16-6.03-14.32-3-23.22,7.51-22.1,38.63,4.83,43.75-14.79-3.95-14.44-37.85-10.22-39.8-29.01-1.61-15.49,17.25-13.47,23.24-21.31.6-10-46.09-21.7,9.96-40.83,12.87-22.48,22.14-15.83,39.58-8.25,4.01,1.77,14.31.56,16.94-4.3,11.73-21.67,26.57-12.75,44.59-4.86,8.49-3.06,16.31-8.15,25.5-9.64,8.75-1.41,18.88-.66,26.01,6.89,2.11,2.23,6.91,9.51,8.96,10.87,16.37,10.93,22.69-16.91,37.64-18.5,2.51-.27,7.75-1.68,9.49-3.69,1.36-1.58.86-.92,1.1-3.43-.31-.36-.62-.71-.93-1.07-5.68-4.93-17.87-15.27-24.86-14.72-4.2.33.83,13.26-3.39,18.19-3.45,4.04-4.72,4.15-8.97,5.48-18.65,5.84-24.3-10.07-40.11-13.63-6.74-1.52-16.92,4.15-24.45,4.29-11.48.22-17-9.84-26.83-14.66-6.99-3.16-15.9-1.35-21.54-8.51-2.98-3.79-2-9.05,1.05-12.36,6.31-6.84,12.65-5.91,20.38-5.22l3.65-10.29c11.24-6.48,13.96-3.3,25.81-3.75,4.64-.17,8.54-.22,11.9-4.5,2.18-12.91-20-28.29,3.53-37.27,7.99-3.05,12.66-2.54,20.85-2.29,23.31-41.43,50.61-6.03,78.69,1.64,4.61,1.26,15.01,1.35,15.78-6.4-4.19-12.42-25.72-6.22-30.61-13.42-11.69-17.21,16.24-21.6,21.15-22.4,23.37-32.64,33.84,11.72,51.23-23.78,7.25-14.8,19.9-16.96,31.77-20.31ZM546.85,297.57c15.97,4.58,14.87,4.4,28.39-5.74,3.78-2.83,19-.36,20.85-9.43-6.65-5.88-29.71,4.03-31.24-10.93-.37-3.59.18-5.48,1.8-8.34,5.96-4.15,13.76-5.42,15.7-11.79-2.84-7.01-8.62-5.83-13.88-5.29-19.7,18.12-21.71,20.38-46.85,14.56-13.94,7.37-15.27,15.53-19.62,32.62,13.57-2.15,31.74-.05,44.85,4.34ZM471.79,265.58l-.86.98c-25.52,28.56-50.12-31.35-58.59,9.2-1.24,5.95,18.57,25.46,23.09,31.2,2.07,5.04,3.88,9.06,9.35,8.99,6.26-7.24-3.34-13.5,2.35-20.24,3.61-4.27,8.44-6.4,13.27-5.93,5.92.02,14.6,4.71,18.79-.22,6.42-7.57,8.29-19.01,13.1-27.72,1.69-3.06,7.5-9.39,9.95-12.13-8.3-3.48-13.39-5.96-22.32-5.3-5.85,5.38-7.09,12.48-8.13,21.17ZM305.91,380.96c13.17,4.73,17.17-2.4,28.9-7.79,20.56-9.44,31.12,15.85,46.4,26.42l1.51,1.06c.3.2.61.41.92.61,3-13.36,3.33-13.72,10.66-24.2-7.45-12.38-16.63-19.82-29.08-21.75-25.75-3.99-29.9.2-47.18-25.58-21.02-.22-38.02,6.56-57.83,3.13-7.99-1.38-18.51-9.69-27.1-12.46-9.81-3.15-24.83-1.38-33.4-4.93-20.67-8.55-31.01-23.9-54.6-20.06-4.1,2.09-7.63,4.95-5.19,11.06,10.42,8.05,29.67-8.57,45.04,13.29l2.71,12.97c3.19,3.05,6.25,6.19,9.72,8.7l1.22.06c22.76.82,44.38-21.17,66.12,8.24,8.92,12.08,7.57,16.07-.86,27.24-7.83,10.39-20.78.54-25.86,7.6l.64,1.82c11.52,5.04,49.88,25.8,54.93,5.75-1.3-2.85-5.41-5.07-7.9-6.78-1.75-8.67-7.5-33.8,4.85-35.07,3.6-.37,4.55,2.88,5.7,6.55,5.16,3.15,7.59-3.48,13.15-1.84,2.43,3.34,1.55,1.44,2.47,6.1-2.84,11.88-12.13,6.57-9.68,15.87,1.23,1.36,2.43,2.77,3.75,3.99ZM342.28,323.98c10.31,3.21,18.41,2.56,28.88,3.95,11.48,1.52,21.08,6.94,31.57,12.49,1.43-1.19,3.22-2.46,3.24-4.93.26-33.36-34.92-27.61-52.63-35.62-5.97-2.7-13.18-9.88-18.36-11.47-6.89-2.12-19.75-3.45-26.65-2.91-2.72,2.02-3.26,1.61-4.33,4.56,2.98,7.1,13.76,7.65,20.41,13.13,8.3,6.85,11.13,13.51,17.89,20.8ZM470.16,374.02c13.93-6.96,21.9.46,42.34-15.43l-1.23-.38c-12.96-3.95-39.57-2.31-17.14-27.43-6.51-2.78-11.69-5.29-18.64-5.57-6.55,5.48-28.09,21.49-30.74,30.56-1.02,3.49.56,18.82-4.09,24.11-1.67,1.9-1.76,4.15-1.71,6.61,5.94,7.36,25.63-7.39,31.21-12.47ZM344.92,156.94c11.54,30.46,10.08,25.64,34.31,34.7,10.41,4.02,19.99,12.7,28.54,7.52,4.57-10.22-13.02-22.77-13.38-34.46-.32-10.45-5.44-11.31-11.92-11.08-10.79,13.12-24.74,9.51-37.55,3.33ZM490.74,133.79c3.61-2.61,7.24-4.92,10.34-8.37-9.54-4.67-12.86-6.91-23.34-6.24-4.86,2.99-8.58,5.22-6.45,12.81,5.81,7.38,12.67,6.12,19.45,1.8ZM187.99,388.2c-2.42,1.39-5.04,2.76-7.37,4.34-8.96,6.08-25.74-.13-34.27,6.33l-.33,1.54c3.58,4.87,21.36,7.28,27.48,8.47l9.95.87c11.87,1.09,20.94-3.59,30.81-11.29-5.14-3.61-10.33-7.14-15.55-10.56-2.27.03-8.81-.06-10.72.3ZM256.72,309.88c8.99,3.62,11.48,3.77,21.17,3.79,5.6-.54,10.01-.23,14.7-3.98l1.17-2.55c-2.05-6.66-10.51-7.44-15.6-7.57-8.89,1.8-13.61,5.01-21.44,10.31ZM655.09,391.62c5.61.29,9.66-1.1,15.02-3.11-3.31-14.43-5.38-17.52-17.68-15.59-9.18,4.14-12.68,5.44-20.19,13.42,8.04,2.16,14.66,3.91,22.85,5.28ZM333.66,175.87c.9-15.5-19.94-18.29-28.81-17.34-2.21,16.21,20.41,17.45,28.81,17.34ZM422.11,176.33c1.65-3.64,3.57-6.79,2.63-11.18-1.98-9.31-10.81-14.79-17.96-16.24-2.38,10.82,4.71,25.02,13.22,28.33l2.11-.9ZM502.9,145.61c7.86,2.31,12.61,3.6,20.58,4.72,4.61-.86,10.98-1.38,10.56-8.83-5.3-7.22-10.24-5.63-17.44-4.93-6.4,2.6-8.45,3.42-13.7,9.04ZM647.4,275.34c-8.83,2.58-21.69,8.64-29.93,13.24,7.33,1.35,13.02,2.21,20.39,2.86,14.57.22,13.74-2.68,26.7-7.5-5.39-4.94-10.01-9.49-17.16-8.6ZM445.4,171.38c-2.07,5.42-7.79,17.9-6.18,23.24,5.38,2.09,14.76-5.39,21.75-5.82,6.78-.41,9.06,0,15.57,1.36,3.66.73,5.18-.44,8.83-2.02,2.68-3.8,2.32-1.83,2.26-5.73-5.65-8.57-33.81-11.39-42.23-11.03ZM539.65,364.27c-4.03,2.08-11.16,6.28-13.93,10.59l.38,2.51c6.08,4.91,14.08,5.12,19.81,8.07,11.28,5.83,20.01,22.62,34.12,18.01,7.07-2.31,14.87-6.97,21.91-10.58,6.43-2.41,13.8-4.18,15.7-13.78-4.17-6.88-22.88,6.76-30.41,6.68-20.85-.21-26.1-22.93-47.58-21.5Z"/>
</svg>