<?xml version="1.0" encoding="UTF-8"?>
<svg id="Layer_1" xmlns="http://www.w3.org/2000/svg" version="1.1" viewBox="0 0 805.88 781.2">
  <!-- Generator: Adobe Illustrator 30.5.1, SVG Export Plug-In . SVG Version: 2.1.4 Build 3)  -->
  <defs>
    <style>
      .st0 {
        fill: #152e26;
        fill-opacity: .89;
      }

      .st1 {
        fill-opacity: .93;
      }

      .st1, .st2, .st3, .st4 {
        fill: #1e3e33;
      }

      .st2 {
        fill-opacity: .97;
      }

      .st3 {
        fill-opacity: .99;
      }
    </style>
  </defs>
  <path class="st4" d="M258.88.34l53.53-.05-.17,207.05c25.37.95,54.47.09,80.1.19.45,7.01.22,18.61.25,25.96-25,1.16-54.59-.39-80.47.08.48,30.35.04,62.51.03,93l-.12,99.18c-18.93.35-38.85-.09-57.85-.15-.9-23.42-.24-55.62-.29-79.78l-.1-160.17-.02-117.6c-.03-19.33-.72-47.1.27-65.91,1.77-2.15,1.69-1.45,4.84-1.79Z"/>
  <path class="st4" d="M493.35,0l57.93.04c.96,27.01.05,63.23.04,91.34l.15,176.88.18,104.8c.02,11.64.63,42.44-.49,52.46l-57.9-.16c-1.21-24.18-.16-65.35-.19-90.63l-.1-191.2-.21-98.69c-.02-8.84-.62-38.4.59-44.85Z"/>
  <path class="st4" d="M231.24,518.64c37.39-2.03,77.72,15.16,82.69,68.12,3.56,37.95-17.82,67.82-45.49,78.36-7.02,2.67-13.57,3.83-20.87,5.13-24.97,1.14-43.3-2.59-63.71-22.37-11.57-11.58-19.91-27.54-21.22-46.24-3.72-52.73,31.21-79.04,68.6-83ZM244.74,661.01c29.46-4.54,50.38-38.09,46.71-74.91-3.68-36.82-30.56-62.91-60.01-58.25-29.37,4.65-50.18,38.15-46.52,74.88,3.67,36.72,30.43,62.8,59.82,58.28Z"/>
  <path class="st4" d="M468.42,178.27l1.57.89c1.85,3.92,1.11,52.66,1.11,61.42l-.04,185.08c-15.3.97-37.74.2-53.55.21-2.13-.2-2.09.01-3.68-1.7-1.02-7.48-.55-53.65-.57-63.41-.23-50.92-.26-101.85-.07-152.78,17.96-10.16,36.94-19.43,55.23-29.71Z"/>
  <path class="st4" d="M573.91,520.77c2.13-.1,9.83-.86,10.96,1.48,10.12,20.98,19.16,43.16,28.62,64.62,12.19,27.21,24.48,54.34,36.89,81.39-7.16.48-14.55.22-21.74.11-4.02-9.59-16.25-35.01-21.82-42.86l-18.46.07c-15.98-.04-31.96.1-47.94.4-5.15,11.54-8.89,23.92-14.47,35.16-2.56,5.15-10.14,10.59-13.7,5.2,1.23-7.79,57.99-140.17,61.66-145.57ZM545.67,613.78l33.06.48c7.74.09,16.67-.08,24.31.43-4.31-8.79-26.91-61.03-31.02-63.31-7.94,21.18-18.16,41.4-26.35,62.4Z"/>
  <path class="st4" d="M388.88,281.06c.96.04.29-.04,1.95.73,1.1,10.47.51,36.91.52,48.81l-.07,95.18-54.07.25-2.03-1.17c-1.89-6.06-.76-100.45-.67-113.61,18.41-9.81,36.13-20.28,54.38-30.2Z"/>
  <path class="st4" d="M97.59,521.02c7.26-.29,14.52-.3,21.78,0,.58,12.88,1.09,141.88-.67,146.23l-2.02.6h-19.26c-.47-22.49-.02-47.54.04-70.22l-74.72-.04c.19,23.42.2,46.85.03,70.28-7.33.37-15.29.11-22.68.05-.25-34.57-.04-107.79.54-145.11.43-.63.87-1.25,1.3-1.88,6.91-.04,13.82.01,20.73.15.6,20.76.17,44.58.2,65.57,22.8,1.08,51.35.3,74.53.06l.19-65.69Z"/>
  <path class="st4" d="M417.18,518.68c27.82-.31,51.1,3.79,68.32,33.59-6.42.43-13.47.38-19.95.49-7.17-14.84-20.7-22.79-34.14-23.07-97.02-2.06-73.61,168.16,29.74,121.86-.6-13.45-.37-28.04-.37-41.6l-.95-1.79c-6.85-2.97-16.04,3.14-19.94-3.98-.41-3.51-.5-3.28.81-6.41,3.04-2.84,35.13-1.61,40.69-1.43l.95,61.49c-38.22,15.37-82.32,23.81-115.36-11.1-24.66-26.06-27.61-68.52-5.84-98.88,14.75-20.56,34.69-27.39,56.04-29.17Z"/>
  <path class="st4" d="M794.26,520.66c3.83-.18,6.57-.76,10.08,1.05,3.22,4.6.23,123.81,1.09,140.86.12,2.54-.14,5.4-1.63,7.36-5.16-.3-28.54-26.95-34.54-33.22-25.07-25.98-49.76-52.55-74.05-79.68-1.25,31.04-.13,74.88-.13,106.94-.23,1.05-.65,1.73-1.11,2.72-3.49,1.78-6.94,1.1-10.81.91.05-18.02.1-141.62,1.75-145.85,3.47-.6,5.58-.95,8.58,1.98,10.71,10.44,21.07,21.76,31.4,32.82l68.86,74.63c.46-35.68-.86-75.34.51-110.52Z"/>
  <path class="st2" d="M328.91,709.97c9.65-1.47,32.66.25,33.46,16.18-7.7,6.28-15.94-13.53-25.18-12.19-37.18,5.39-33.15,64.16,6.69,59.83,9.31-3.06,11.24-11.31,20.03-9.18l.35,1.7c-14.26,24.32-57.4,18.58-63.79-15.19-1.48-7.52-.45-15.47,2.85-22.03,6.01-12.06,15.31-16.11,25.6-19.12Z"/>
  <path class="st3" d="M459.41,760.74c-2.52,5.94-7.63,18.05-13.24,18.49l-1.14-1.21c.56-5.93,24.34-59.75,28.01-65.06,3.13-.94,3.15-1.19,6.41-.3,2.72,3.65,26.72,59.57,27.87,64.64-8.39,10.28-15.96-8.86-17.7-16.98.1-3.39-1.03-6.14-2.08-9.21l-1.77-.22c-3.59-5.16-8.72-17.72-11.56-24.27-3.97,8.14-8.66,17.23-12.04,25.66-2.18,2.05-1.49,4.02-2.76,8.46Z"/>
  <path class="st3" d="M415.21,719.39l-.79-3.25,1.48-1.02c3.2.33,5.55.39,8.76.4,4.06,3.65,7.63,7.12,8.39,13.68,2.85,24.4-21.72,22.09-34.14,22.5l-.31-5.28.81-1.84h3.65c14.16.04,25.89-9.39,12.14-25.19Z"/>
  <path class="st4" d="M399.43,777.59c-3.24-.33-5.66-.16-8.44-2.17-.96-7.96-.25-49.37-.13-59.6l1.59-1.43c2.67-.09,2.79-.45,4.96,1.29-.7,6.95-2.89,25.9,1.2,30.74l.31,5.28c.34,8.62.51,17.25.51,25.89Z"/>
  <path class="st0" d="M388.32,711.63c12.33-.4,24.89-1.94,36.35,3.89-3.22-.01-5.56-.07-8.76-.4l-1.48,1.02.79,3.25c-6.63-2.01-9.18-2.19-16.22-1.84,0,6.34-.32,21.44.43,27.03l-.81,1.84c-4.09-4.84-1.9-23.79-1.2-30.74-2.17-1.74-2.3-1.38-4.96-1.29l-1.59,1.43c-.12,10.23-.82,51.64.13,59.6,2.78,2.01,5.2,1.84,8.44,2.17-3.38,1.08-7.15,1.84-10.26-.48-1.97-6.35-.93-55.54-.86-65.48Z"/>
  <path class="st1" d="M485.76,750.89l1.77.22c1.05,3.07,2.19,5.82,2.08,9.21-4.09-.87-25.09.18-30.21.42,1.27-4.44.58-6.41,2.76-8.46,2.99,1.55,14.2,1.27,17.99,1.17,3.68-.1,3.73-.02,5.6-2.56Z"/>
</svg>