<?xml version="1.0" encoding="UTF-8"?>
<svg id="Layer_1" xmlns="http://www.w3.org/2000/svg" version="1.1" viewBox="0 0 814.2 553.05">
  <!-- Generator: Adobe Illustrator 30.5.1, SVG Export Plug-In . SVG Version: 2.1.4 Build 3)  -->
  <defs>
    <style>
      .st0 {
        fill: #a4a3a1;
      }

      .st0, .st1 {
        fill-opacity: 0;
      }

      .st2 {
        fill-opacity: .36;
      }

      .st2, .st3, .st1 {
        fill: #f9f9f5;
      }

      .st3 {
        fill-opacity: .22;
      }

      .st4 {
        fill: #21382e;
      }
    </style>
  </defs>
  <path class="st4" d="M400.08.69c17.34-1.78,27.02-.79,41.71,11.05,4.04,3.25,9.24,6.61,13.89,7.98,5.11,1.5,11.79.75,16.97-.69,18.61-5.17,30.55,2.14,45.87,14.07,8.93,6.96,8.82,26.47,16.14,30.39,10.75,5.18,21.38,3.64,31.71,11.24,9.53,7.02,11.75,16.52,4.85,28.2-13.64,23.08-34.73,10.66-53.06,14.18-6.67,1.28-15.75,10.64-23.25,11.25-7.13,2.62-14.4-3.49-19.62-9.55-8.28-9.62-19.47,3.8-17.55,13.86,8.99,12.4,36.97,5.2,48.27.44,13.16-5.54,21.84-4.24,34.13,3.54,11.84,7.5,27.98,5.93,37.4-6.31,6.04-7.85,8.91-18.52,18.22-22.17,10.63-4.9,18.78-1.38,29.45-.39,4.58.36,10.29-1.38,14.87-.35,3.71.81,7.17,2.89,9.99,6.01,5.59,6.12,7.69,17.4,13.61,22.59,5.69,5,15.88,4.75,22.11,8.57,3.94,2.42,6.46,6.38,7.39,11.49,2.47,13.55,8.42,18,15.37,27.56,2.17,2.99,3.25,10.14,2.26,13.53-6.98,23.78-37.51,11.15-51.51,11.48-6.62.16-16.31,9.89-21.1,11.04-18.02,4.32-15.22-4.17-31.98,8.39,4.34.96,8.48,1.76,12.2,4.52,24.78,18.31,23.11-7.72,43.7-5.96,11.7,1.24,19.57,15.94,31.69,16.23,11.55.27,20.57-6.5,30.42,4.62,9.69,10.94-5.09,23.63-4.85,32,8.95,5.66,21.33-3.24,31.7.23,24.83,8.31,15.5,29.33,27.44,43.42,9.27,6.87,29.33,9.72,34.21,24.05,6.46,18.99-10,27.11-18.92,34.18-4.77,3.77-3.29,11.65-14.16,16.56-15.86,7.17-23.69-1.46-37.38-8.12-20.34,4.45-24.04,7.64-43.52-4.25-5.04,1.33-24.33,8.81-26.38,13.86,5.8,5.65,29.04-2.81,35.54,4.01l-.07,2.37c-1.06,1.65-1.27,2.67-2.59,3-2.89.73-7,.43-10.09.56-8.13.36-20.13,5.15-27.26-.38-11.49-8.91-20.55-8.81-33.16-11.86-5.7-1.38-14.83-11.59-20.74-13.62-9.8-3.02-20.11-.9-30.18-1.5-14.28-.85-38.93-7.72-50.68,4.99-.85,2.44-1.49,3.65-.47,6.32,4.49,11.73,27.38-9.18,43.63,1.55,3.44,2.27,4.18,5.05,5.22,9.37,3.06,12.7,15.04,22.71,13.75,36.45-.3,3.15-5.23,23.59-6.5,24.88-6.45-1.82-7.83-1.18-14.19-.04-16.48,2.95-22.52-6.09-34.92-16.69-3.34-2.84-5.29-.9-7.75-3.21-3.74-3.49-7.89-9.31-8.18-15.4-.48-10.27,4.64-16.39,9.47-23.52-3.52-1.48-7.28-3.41-10.77-5.1-8.21,6.66-13.44,18.16-23.03,23.92-16.62,9.97-48.59-13.24-57.2,16.17-2.48,8.47,4.61,19.06,4.2,24.57-2.04,27.6-2.53,38.43,22.78,44.28,6.17,1.99,13.45,1.63,19.93,4.28,7.54,3.37,13.21,10.46,20.52,14.56,4.72,2.64,23.67,3.82,25,10.98-13.55,8.4-47.18-6.36-60.18-11.15-5.74-2.12-15.72-1.35-21.72-.8,7.11,5.86,31.66,13.28,32.29,22.65-5.77,5.71-20.65-2.55-27.6-4.03-7.91-1.67-16.52-2.3-24.07-5.47-11.55-4.84-21.75-15.98-34.4-16.29-15.78-.68-24.61,11.49-38.53,16.92-6.43,2.03-13.29,1.7-19.9,2.51-5.15.64-10.12,5.24-14.68,1.74l-.22-2.66c3.01-6.92,12.1-7.34,17.63-12.05l-1.18-1.17c-13.23-2.71-17.9-2.1-29.8,5.72-6.71,4.4-27.76,7.03-34.12,4.02l-.21-1.36c5.02-3.91,15.26-7.04,21.18-9.87,9.07-4.32,18.79-11.69,28.2-14.13,5.05-1.31,22.02,2.55,26.18-.95,7.46-6.28,23.53-25.33,25.8-37,2.39-12.29-1.46-16.85-2.93-25.76-.88-5.31,3.47-16.47-.4-23.83-4.72-8.98-10.32-9.59-16.87-15-3.74-3.09-7.54-9.73-11.58-12.59-13.64-9.68-28.47.13-42.46-3.64-8.48-2.29-10.97-11.62-15.01-20.53-38.3-26.64-31.11-.95-65.8,9.34-13.68,2.82-25.88-5.2-39.03-7.52-6.55-1.16-11.93.72-18.16,2.3.79.88,1.56,1.79,2.31,2.72,4.4,5.34,9.32,14.73,2.23,20.65-9.53,7.96-26.95,13.56-38.11,10.07-7.35-2.23-15.34-9.03-23.24-7.81-11.39,1.76-28.71,15.91-37.68-2.08-9.58-19.21,21.13-23.2,29.01-25.72,2.38-.76,5.42-2.48,6.74-5.84-1.38-3.24-3.63-3.65-5.98-5.01-15.52-8.93-21.61,5.08-36.65,6.03-8.23.51-14.44-7.55-20.96-8.48-11.79-1.1-18.58,2.99-30.52-2.03-9.75-4.11-16.63-14.2-13.39-27.79,2.14-8.96,17.26-13.43,24.42-16.73l-.98-2.92c-10.7-31.19,18.78-25.4,23.35-40.56,7.85-26.03,12.31-38.39,38.34-36.65,11.15.74,21.29,10.91,31.22.42.55-1.61,1.28-2.69.74-3.92-4.27-9.81-20.6-11.16-27.98-17.72-4.08-3.62-8.95-8.12-9.21-14-.77-17.71,11.24-18.54,19.39-26.36,2.38-2.29,8.88-12.74,11.25-16.01,13.01-17.96,25.97-4.95,41-5.85,15.17-.91,8.16-24.75,17.08-34.91,8.99-10.25,27.12-15.74,38.63-10.6,8.2,3.66,15.45,12.17,24.53,11.57,11.1-.73,2.73-18.96,11.01-28.91,9.06-10.89,24.01-7.11,35.61-7.58,5.05-.21,11.51.67,15.07-3.71.61-10.05-15.69-12.29-16.05-23.03-.41-12.28,5.52-18.63,13.59-22.3,15.96-7.26,27.93,3.09,43.48.82,6.79-.99,11.53-12.49,17.41-15.9,13.49-8.11,32.63-15.52,47.38-18.92ZM384.87,331.85c3.58,2.1,3.36,2.87,6.62,2.35,2.03-4.22,3.48-11.59,5.56-14.83,4.37-6.81,24.74-25.16,8.78-32.45-8.98-4.1-22.12-.96-32.46-3.16-26.06-25.22,6.03-22.93,7.93-35.11-4.44-12.11-18.23-13.01-24.43-20.39-6.48-7.72-7.7-15.92-15.8-24.2-6.94-1.45-20.77-2.21-25.58-5.08-13.13-7.83-12.25-21.39-29.14-21.3-2.8,1.69-4.04,2.02-5.67,5.33-.77,8.36,8.9,11.33,14.14,11.77l4.49.43c1.25,1.76,7.54,11.08,9.62,12,9.27,4.12,44.69,1.97,27.62,26.64-6.42,9.28-32.34-1.83-36.57,9.37.74,4.99,4.74,9.23,7.77,11.56,4.13,3.17,19.65,15.8,23.33,17.01,12.78,4.16,14.11-.94,26.05,10.31.88,3.69,1.79,7.4,2.52,11.14,19.03,13.43,12.21,25.59,25.2,38.6ZM118.09,301.3c-4.95.93-7.13.74-9.5,6.72.78,2.32.44,2.6,2.78,3.49,7.14,2.72,16.82.22,24.12,1.41,1.19.19,10.8,7.79,12.45,9.08,9.2-.45,34.06-4.39,36.05,10.18-1.61,6.83-3.17,8.01-7.77,12.53l-.1,1.63c5.64,4.92,13,5.41,17.3,8.56,9.26,6.79,12.03,19.31,25.69,16.15,11.88-2.75,23.48-13.2,32.93-22.22,3.52-.29,7.09-.65,10.6-.8,8.02,2.05,12.67,5.66,20.74,3.73l1.35-1.91c-.48-9.32-19.42-22.65-26.65-21.57-11.61,1.72-23.07,7.25-34.93,5.3-12.72-2.35-18.64-15.23-30.81-20.84-14.23-6.55-26.4,1.36-38.21-.57-14.28-2.33-18.83-11.94-36.04-10.87ZM676.62,384.52c13.3-5.93,4.84-9.26,16.32-20.84,5.15-5.21,12.73-3.62,16.26-7.89.16-1.46.66-2.75-.33-3.88-19.84-22.61-47.04,36.6-70.41,6.3-3.26-4.23-4.87-9.38-2.44-14.78,7.3-4.65,25.2-9.38,27.16-15.97-3.56-3.95-8.2-4.37-12.85-3.39-17.41,7.64-23.81,12.61-42.12,10.99l-6.6,7.2c-5.8,6.24-23.85,14.31-24.78,20.49,4.45,5.66,31.7.78,40.69,5.42,21.57,11.12,33.97,28.89,59.1,16.35ZM441.23,299.91c-1.25,4.24-2.24,7.69-3.94,11.72-4.23,10.03-15.25,23.2-13.03,34.96,2.66,3.57,2.98,3.27,6.86,1.25,14.19-8.21,34.7-2.61,38.34-20.58,5.31-26.21,15.36-17.24,28.85-28.54.23-6.3-8.56-5.09-12.11-4.99-21.27,8.09-22.43,15.2-44.97,6.18ZM594.84,225.14c3.11-2.86,10.86-9.16,12.66-12.18l-1.39-2.68c-5.27-.28-14.53-.41-19.72.28-5.45,2.16-9.78,3.05-13.09,8.92-.52,11.35,16.39,7.52,21.54,5.66ZM445.7,128.1c3.18-6.01,3.65-7.11,5.6-13.81-15.48.52-16.82-7.05-27.45-5.71-2.93,1.76-3.85,2.02-5.95,5.19-1.45,10.94,20.25,9.99,27.81,14.33ZM570.66,413.66c-7.18,3.04-11.55,5.57-16.27,13.69,12.28-7.41,17.75-13.14,26.99,3.09,1.39,4.32,2.74,10.05,5.44,12.91l.84-.79c-.07-10.57-7.12-29.11-17-28.9ZM558.12,359.91c3.89-4.53,7.2-8.62,11.55-12.62,6.24-5.74,21.06-6.24,24.07-14.61-.23-2.47.19-2.74-1.68-4.18-16.82-12.89-31.4-.15-47.12,7.48-5.96,2.89-24.28,1.64-26.5-8.63-2-10.38,12.88-22.44-3.72-25.34-1.99,1.92-3.64,3.95-5.19,5.52-9.21,9.29-15.65,6.38-22.42,19.96-.33,7.31.13,16.85-4.43,22.2-13.51,15.85-38.63,6.55-46.49,30.71-1.92,5.91-5.39,13.09-3.83,19.7,1.21,1.33,2.16,2.77,4.17,1.87,8.74-3.91,7.98-4.97,17.18-6.23,16.99-2.31,23.21,13.24,38.81,3.67,6.26-3.85,11.2-8.95,17.1-13.39,17.4-24.98,21.82-26.1,48.52-26.11ZM570.79,405.91l1.4-2.59c-1.91-7.08-9.98-6.75-14.91-5.64l-2.37,2.57c2.33,1.93,10.05,2,15.88,5.66ZM253.6,230.15c-6.55,3.67-8.46,4.87-15.25,7.17-5.93,2.01-19.97.58-22.03,2.58,5.87,6.29,11.06,7.89,17.12,13.23,11.91-3.03,15.41-3.16,27.55-1.46,14.95,4.32,9.98,11.6,31.35,11.01-2.6-6.12-4.58-12.03-8.8-16.38l-1.35-1.41c-8.6-8.93-17.27-15.21-28.6-14.73ZM375.1,219.85c1.8-19.53-10.59-25.31-24.13-22.37,5.36,8.61,15.17,26.75,24.13,22.37ZM186.87,230.5c-5.33,1.13-14.23,1.32-14.86,9.28,1.64,3.14,4.16,4.26,6.98,4.8,14.98,2.83,14.83,4.82,26.06,16.16,4.76,2.63,6.97,3.13,12,1.57l.8-1.64c-1.91-5.58-8.07-9.2-11.99-14.29-3.52-17.94-4.17-17.4-18.99-15.87ZM341.49,309.78c-7.78,6.8-11.28,16.85-22.01,18.24-10.55,1.36-26.03-14.11-35.36-6.4-1.22,7.3,12.64,12.25,15.27,17.07,15.66,28.79,4.89,41.8,39.43,29.85,18.72-4.05,38.29,23.46,48.01,17.19,4.02-13.45-19.88-40.37-25.79-50.74-7.04-12.36-3.89-27.04-19.56-25.21ZM450.28,202.1c-6.03,5.43-16.49,13.92-8.82,24.98,7.42,2.56,13.76-7.09,21.06-9.5,3.24-1.07,8.98-.74,12.38-.32,6.08,1.36,14.71,2.2,16.76-7.33-2.06-6.13-4.21-6.01-9.2-7.86-9.7,3.64-14.48,5.88-24.81,2.78-2.81-.84-4.8-2.51-7.37-2.75ZM117.8,351.6c-3.89,1.03-4.81.96-7.96,3.7l-.56,2.28c4.22,8.84,32.34,14.52,41.2,19.84,3.4,2.04,13.17-5.64,16.54-8.15,3.34-.76,9.65-1.38,11.8-3.91-1.32-7.26-5.33-7.85-10.41-9.29-10.2-2.88-19.99,1.75-30.06,2.65-3.71.29-14.94-6.17-20.53-7.12ZM419.36,195.26c-12.59,4.3-11.36,12.61-30.62,15.84,1.07,8.37,1.6,23.43,6.02,28.54,3.04,1.02,3.06,1.04,6.69-1.2,9.69-6.45,11.53-6.56,22.42-7.59-.48-4.54-2.46-16.72-.62-19.99,2.41-4.28,7.94-8.17,8.95-12.9-2.77-3.87-8.85-2.85-12.83-2.69Z"/>
  <path class="st1" d="M286.36,177.69c16.89-.09,16,13.47,29.14,21.3,4.82,2.87,18.64,3.63,25.58,5.08,8.1,8.28,9.32,16.48,15.8,24.2,6.2,7.38,19.99,8.28,24.43,20.39-1.9,12.18-33.99,9.89-7.93,35.11,10.34,2.2,23.48-.94,32.46,3.16,15.95,7.29-4.42,25.64-8.78,32.45-2.08,3.24-3.53,10.61-5.56,14.83-3.27.52-3.04-.25-6.62-2.35-12.99-13.01-6.17-25.17-25.2-38.6-.73-3.74-1.65-7.45-2.52-11.14-11.94-11.25-13.27-6.15-26.05-10.31-3.67-1.2-19.19-13.83-23.33-17.01-3.04-2.33-7.03-6.57-7.77-11.56,4.23-11.2,30.15-.09,36.57-9.37,17.07-24.67-18.35-22.52-27.62-26.64-2.08-.92-8.37-10.24-9.62-12l-4.49-.43c-5.24-.44-14.91-3.41-14.14-11.77,1.62-3.31,2.87-3.64,5.67-5.33Z"/>
  <path class="st0" d="M118.09,301.3c17.21-1.07,21.75,8.54,36.04,10.87,11.81,1.93,23.98-5.98,38.21.57,12.18,5.61,18.09,18.49,30.81,20.84,11.86,1.95,23.32-3.58,34.93-5.3,7.22-1.08,26.17,12.25,26.65,21.57l-1.35,1.91c-8.07,1.93-12.72-1.68-20.74-3.73-3.51.15-7.09.51-10.6.8-9.45,9.02-21.05,19.47-32.93,22.22-13.66,3.16-16.43-9.36-25.69-16.15-4.3-3.15-11.66-3.64-17.3-8.56l.1-1.63c4.6-4.52,6.17-5.7,7.77-12.53-1.99-14.57-26.85-10.63-36.05-10.18-1.65-1.29-11.25-8.89-12.45-9.08-7.3-1.19-16.98,1.31-24.12-1.41-2.34-.89-2-1.17-2.78-3.49,2.36-5.98,4.55-5.79,9.5-6.72Z"/>
  <path class="st1" d="M186.87,230.5c14.82-1.52,15.47-2.06,18.99,15.87,3.92,5.09,10.08,8.71,11.99,14.29l-.8,1.64c-5.03,1.55-7.24,1.05-12-1.57-11.24-11.34-11.08-13.32-26.06-16.16-2.82-.53-5.34-1.66-6.98-4.8.63-7.97,9.53-8.15,14.86-9.28Z"/>
  <path class="st1" d="M586.39,210.57c5.19-.68,14.45-.56,19.72-.28l1.39,2.68c-1.8,3.02-9.55,9.32-12.66,12.18-5.15,1.87-22.06,5.69-21.54-5.66,3.31-5.86,7.64-6.76,13.09-8.92Z"/>
  <path class="st1" d="M423.85,108.58c10.63-1.33,11.97,6.24,27.45,5.71-1.95,6.7-2.42,7.8-5.6,13.81-7.56-4.34-29.25-3.4-27.81-14.33,2.1-3.17,3.03-3.43,5.95-5.19Z"/>
  <path class="st3" d="M570.66,413.66c9.88-.21,16.93,18.33,17,28.9l-.84.79c-2.7-2.86-4.05-8.59-5.44-12.91-9.24-16.23-14.71-10.5-26.99-3.09,4.72-8.12,9.09-10.65,16.27-13.69Z"/>
  <path class="st2" d="M557.28,397.68c4.93-1.11,13-1.44,14.91,5.64l-1.4,2.59c-5.83-3.66-13.55-3.73-15.88-5.66l2.37-2.57Z"/>
</svg>