<?xml version="1.0" encoding="UTF-8"?>
<svg id="Layer_1" xmlns="http://www.w3.org/2000/svg" version="1.1" viewBox="0 0 339.99 435.36">
  <!-- Generator: Adobe Illustrator 30.5.1, SVG Export Plug-In . SVG Version: 2.1.4 Build 3)  -->
  <defs>
    <style>
      .st0 {
        fill: #2c6152;
      }

      .st1 {
        fill: #fff;
      }
    </style>
  </defs>
  <path class="st0" d="M327.23.65c6.66-.99,8.5-1.51,12.58,3.53,1.34,12.19-4.94,105.91-10.36,112.67-10.39-.05-20.5-14.02-27.31-21.48-19.81,18.9-43.46,44.15-62.3,64.05,32.46,2.05,65.58,6,96.87,15.1l.53,33.7c-54.05,15.28-131.53,14.44-187.68,13.23-32.69-.35-82.4-4.19-113.63-11.93l-.02-35.89c22.59-7.53,46.28-8.66,69.52-13.4,61.96-12.63,106.73-61.38,146.06-108.39-7.59-7.63-22.74-18.22-24.43-27.76,5.84-6.42,85.97-20.29,100.15-23.44Z"/>
  <path class="st0" d="M35.73,328.25c86.71,19.27,212.39,14.41,300.58.19.83,12.19,2.19,85.37-1.53,91.32-72.82,20.78-225.93,20.66-298.84.46-.32-30.66-.39-61.32-.2-91.98Z"/>
  <path class="st0" d="M328.96,236.12l4.79.79c4.93,9.39,2.87,51.46,2.69,64.71-85.96,19.26-203.88,15.69-291.03,2.72l-6.37-1.91c-6.78-8.81-3.69-52.98-3.41-66.13,82.88,14.31,210.92,18.32,293.33-.18Z"/>
  <path class="st1" d="M.68,339.73c.9-.98,2.4-1.1,3.46-.29,1.05.81,1.31,2.3.6,3.42-.52.82-1.47,1.28-2.43,1.18-.97-.1-1.8-.74-2.14-1.65-.34-.91-.14-1.94.52-2.66Z"/>
</svg>