<?xml version="1.0" encoding="utf-8" ?><svg xmlns="http://www.w3.org/2000/svg" xmlns:xlink="http://www.w3.org/1999/xlink" width="1792" height="2240" viewBox="0 0 1792 2240"><path fill="#010100" d="M1108.74 841.106C1114.76 840.891 1119.33 840.488 1121.76 848.17C1121.36 851.261 1118.34 856.794 1116.61 859.298C1089.38 898.709 1064.09 939.088 1039.89 981.535C1021.58 1014.3 1004.09 1047.77 987.457 1081.9C978.293 1100.88 973.893 1114.26 963.283 1133.06C980.515 1133.81 1084.55 1118.16 1087.41 1142.59C1084.86 1150.61 1076.01 1155.02 1069.6 1153.68L1068.72 1151.92C1070.3 1148.06 1073.88 1145.97 1076.95 1143.58C1051.5 1136.31 983.409 1140.06 957.158 1147.22C937.58 1204.15 905.582 1261.95 904.256 1325.92C905.012 1325.45 905.771 1324.99 906.532 1324.54C910.188 1322.38 910.826 1321.61 914.197 1323.13L914.822 1325.74C914.38 1327.65 913.976 1329.24 913.057 1330.9C910.514 1335.47 906.34 1339.87 901.792 1340.64C899.236 1341.07 896.718 1340.07 894.894 1337.75C876.689 1314.7 915.995 1208.85 925.386 1181.96C928.116 1174.14 935.564 1160.16 934.956 1151.96C931.041 1149.79 857.339 1164.67 848.198 1166.81C834.296 1194.04 822.364 1219.39 812.374 1249.42C809.674 1257.06 805.206 1264.62 802.584 1272.16C788.099 1313.85 769.15 1352.13 753.352 1392.95C750.811 1399.51 749.166 1405.44 746.11 1411.77C740.374 1415.92 735.541 1419.04 729.103 1414.72C723.388 1406.38 729.94 1395.32 732.401 1385.81C744.207 1340.23 770.276 1269 726.174 1237.17C710.058 1225.54 693.168 1225.77 675.554 1231.54C672.202 1228.65 669.138 1226.65 667.059 1222.39C667.063 1220.46 667.176 1219.4 667.933 1217.65C675.68 1199.73 792.909 1170.34 813.947 1165.06C821.749 1163.11 829.67 1161.41 837.18 1158.15C839.476 1153.1 840.922 1147.82 842.946 1142.68C870.965 1071.45 903.957 1002.37 937.741 935.131C922.723 944.576 903.452 966.586 889.393 981.292C847.208 1025.42 794.934 1064.04 763.663 1121.45C760.221 1127.77 760.774 1140.24 763.012 1146.93C765.836 1155.38 772.849 1156.53 777.567 1163.83L777.377 1165.48C765.538 1170.59 749.267 1151.25 749.173 1135.83C748.346 1121.33 756.65 1105.71 765.281 1095.47C810.578 1041.76 864.071 999.414 910.39 946.904C929.834 924.861 948.213 905.081 963.931 878.619C967.742 872.204 979.152 871.311 984.028 877.116C985.635 883.66 978.608 893.062 975.518 899.348C966.171 918.426 956.718 937.422 947.157 956.334C924.753 1000.56 903.015 1045.3 881.954 1090.54C873.658 1108.23 863.617 1128.46 856.371 1146.95C855.253 1149.8 855.751 1151.29 856.543 1153.63C863.267 1154.88 931.27 1140.74 941.788 1138.86C947.341 1129.57 959.461 1099.49 965.134 1087.76C982.323 1052.22 999.731 1017.05 1017.71 982.122C1021.44 974.884 1042.53 939.404 1043.03 935.121C1041.09 935.194 1040.37 935.241 1038.46 934.946C1038.68 925.457 1092.94 857.194 1102.01 845.82C1103.32 844.186 1106.88 842.075 1108.74 841.106ZM697.127 1217.16C718.366 1223.97 737.803 1229.72 749.718 1255.23C756.347 1269.43 760.595 1296.73 756.753 1312.25C753.82 1331.56 750.08 1347.17 746.852 1365.96C762.276 1337.45 777.727 1297.77 790.092 1267.06C796.465 1251.24 824.039 1190.22 826.631 1176.9L826.135 1174.58C823.225 1172.68 824.811 1173.32 820.981 1173.57C813.151 1176.97 804.447 1178.71 796.298 1180.79C762.971 1189.28 728.034 1199.03 697.127 1217.16Z"/></svg>