<?xml version="1.0" encoding="UTF-8"?>
<svg id="Layer_1" xmlns="http://www.w3.org/2000/svg" version="1.1" viewBox="0 0 282.98 351.83">
  <!-- Generator: Adobe Illustrator 30.5.1, SVG Export Plug-In . SVG Version: 2.1.4 Build 3)  -->
  <defs>
    <style>
      .st0 {
        fill: #4a2c6e;
      }

      .st1 {
        fill: #c8a84b;
      }
    </style>
  </defs>
  <path class="st0" d="M0,0l53.84.11-.07,142.99c-11.45,13.92-23.4,29.8-34.39,44.22,8.89,11.44,25.19,25.09,34.44,36.8l-.04,88.56v39.16s-53.75-.11-53.75-.11L0,0Z"/>
  <path class="st1" d="M259.11,41.6c3.96,2.99,19.75,19.99,23.87,24.36-11.07,12.65-22.07,26.84-32.93,39.8l-90.95,108.01-28.05,33.36c-6.36,7.61-13.36,16.33-20.06,23.4-15.31-18.04-30.83-35.85-46.56-53.42-8.3-9.41-16.47-18.97-24.51-28.67,7.04-8.65,13.57-17.14,20.47-25.86,11.58,11.77,22.78,24.16,34.35,35.96,5.39,5.49,10.81,11.2,15.94,16.99,10.28-10.57,20.34-22.63,30.09-33.95l41.38-48.41,48.02-57.24c10.03-11.85,19.07-22.01,28.95-34.33Z"/>
  <path class="st0" d="M222.04,159.68c1,1.28.57,60.83.57,67.1l.05,124.95c-17.45-.16-34.91-.17-52.37-.04-.84-1.02-.54-10.89-.54-12.76l-.03-25.17-.11-91.59,52.42-62.49Z"/>
  <path class="st0" d="M169.92.14l54.19-.04-.15,60.9c-8.19,9.23-20.46,25.22-28.15,35.16-7.63,10.19-17.63,22.96-25.71,32.56-.94-41.59-.12-86.72-.17-128.58Z"/>
</svg>