<?xml version="1.0" encoding="UTF-8"?>
<svg id="Layer_1" xmlns="http://www.w3.org/2000/svg" xmlns:xlink="http://www.w3.org/1999/xlink" version="1.1" viewBox="0 0 750.59 634.36">
  <!-- Generator: Adobe Illustrator 30.5.1, SVG Export Plug-In . SVG Version: 2.1.4 Build 3)  -->
  <defs>
    <style>
      .st0 {
        fill: #80a47c;
      }

      .st1 {
        fill-opacity: .88;
      }

      .st1, .st2, .st3, .st4, .st5 {
        fill: #1b3b30;
      }

      .st2 {
        fill-opacity: .97;
      }

      .st3 {
        fill-opacity: .95;
      }

      .st4 {
        fill-opacity: .98;
      }

      .st6 {
        fill: url(#linear-gradient);
      }

      .st7 {
        fill: #8d6e45;
      }

      .st8 {
        fill: #876c46;
      }
    </style>
    <linearGradient id="linear-gradient" x1="378.15" y1="152.38" x2="400.14" y2="161.09" gradientTransform="translate(0 739.31) scale(1 -1)" gradientUnits="userSpaceOnUse">
      <stop offset="0" stop-color="#1b3026" stop-opacity=".95"/>
      <stop offset="1" stop-color="#20362a"/>
    </linearGradient>
  </defs>
  <path class="st5" d="M480.25.18c8.23-.92,14.12,1.36,14.14,13.07.06,32.21-.1,64.42-.18,96.64l-.31,194.28-53.07.15-13.62.06c-.17-32.52-1.2-255.86,3.3-269.67,3.25-9.97,40.4-30.22,49.73-34.53Z"/>
  <path class="st5" d="M215.71,373.37c19.34-1.57,41.53,4.22,58.25,17.26,25.03,19.52,36.26,60.18,18.53,92.44-14.28,26-35.3,33.61-59.16,39.3-35.56,4.34-81.67-18.76-85.08-68.99-1.25-17.62,3.24-35.12,12.44-48.56,13.58-19.62,34.65-29.75,55.01-31.45ZM232.51,511.95c71.21-16.96,54.94-137.59-14.86-127.72-68.38,9.04-64.78,133.65,14.86,127.72Z"/>
  <path class="st5" d="M265.56,45.18c11.65-.3,45.18-2.04,53.79,3.74,5.45,7.84,3.89,42.44,3.91,53.72l.14,81.86c-8.8,6.18-17.95,11.65-27.01,17.24-14.48,9.21-25.91,15.82-39.02,27.92-.73-44.23.23-89.2-.34-133.5-.17-13.47-.48-27.93.83-41.2.46-4.66,4.74-7.73,7.69-9.78Z"/>
  <path class="st7" d="M394.91,162.04c.61-.12,1.21-.24,1.82-.33,5.06-.78,10.5.54,10.89,8.34.72,14.32.39,28.95.38,43.33l-.11,90.73-51.64-.04-14.48.06c-.77-29-.78-78.53.24-107.22,7.82-9.76,41.56-29.44,52.9-34.86Z"/>
  <path class="st5" d="M530.03,375.36c3.79-.1,6.45-.63,9.9,1.25,1.98,3,7.81,15.04,8.8,18.09,5.66,17.4,53.67,113.64,53.59,122.62-3.17,3.64-14.2,2.31-18.83,2.17-6.39-11.21-12.53-27.6-19.21-40.33l-22.53.04-43.96.18c-6.62,12.68-13.94,41.63-27.68,38.7l-.63-1.45c1.02-4.11,6.21-15.41,8.16-20.04l25.41-59.09c3.85-8.95,23.15-56.08,26.99-62.14ZM502.38,468.64c9.52.24,19.05.36,28.58.36l29.29.05c-4.52-8.99-27.14-61.11-30.64-63.89-7.94,15.91-14.23,33.81-21.72,50.11-1.95,4.24-4.03,8.87-5.51,13.37Z"/>
  <path class="st5" d="M.53,376.3c6.02-.37,13.97-.02,20.13.03.68,18.98.14,42.82.14,62.17,25.84.37,51.67.54,77.51.51l.22-62.51c6.43-.43,14.46-.23,21.02-.31.89,26.58-.18,57.41.28,84.42.21,12.57.67,46.53-.34,57.15-2.05,2.69-.74,1.69-4.58,1.9l-16.43-.22c-1.03-16.92-.38-52.35-.47-70.24l-77.18.31.25,69.9c-6.23.41-14.22.12-20.58.11-.72-45.9-.59-97.28.04-143.22Z"/>
  <path class="st5" d="M390.05,372.34c19.37-.34,53.48,6.32,65.22,28.39.32,3.51.66,1.94-1.15,4.83-3.86,2.26-8.37,1.45-12.8,1.3-26.41-37.83-93.87-29.01-102.03,27.66-2.43,17.14.78,34.78,8.89,48.93,18.89,32.83,62.92,36.31,88.32,13.61.15-6.31,1.22-29.34-.88-33.44-6.24-.11-13.58,2.15-18.3-1.81-1.49-3.76-1.18-1.83-.95-6.02,4.38-4.74,32.37-2.64,39.55-2.53.11,21.91.04,43.82-.23,65.73-5.21.29-14.96,1.38-19.47-.89-.72-3.4-.32-2.49-1.73-5.38-9.6,1.49-18.6,7.92-29.47,9.6-36.81,5.69-85.05-14.42-89.04-68.44-1.3-17.66,3.16-35.22,12.37-48.7,15.94-23.3,38.41-30.39,61.7-32.84Z"/>
  <path class="st5" d="M737.95,484.75c.37-18.64-1.71-95.32,1.15-106.81,2.23-1.52,5.29-1.87,7.81-1.4,1.16.21,1.99.44,2.53,1.79,1.55,3.9,1.64,136.47-.32,144.46-7.3-2.57-13.72-9.72-19.47-15.81-29.89-31.64-59.58-63.46-90.46-93.59-.69,34.16-.14,70.87-.12,105.22-3.58.19-9.15,1.08-11.93-1.59-.03-.33-.06-.66-.1-.99-.83-44.92-.18-90.07.14-135.01.02-2.1,1.07-3.77,2.04-5.27,9.1,2.05,36.52,33.73,45.25,42.95l63.48,66.05Z"/>
  <path class="st0" d="M309.56,217.64c.53-.06,1.06-.14,1.6-.19,3.28-.29,6.94,1.09,9.25,4.09,4.41,5.71,2.16,70.74,2.13,82.23-16.05.43-33.13.08-49.27.09l-15.49.09c-.64-12.41-.53-37.99-.2-50.23,8.85-10.07,40.08-31.91,51.98-36.09Z"/>
  <path class="st8" d="M395.24,92.86c14.06,1.77,12.72,11.34,12.73,26.32,0,5.39-.02,11.13-.01,16.55-17.67,11.02-38.23,20.91-56.68,31.85l-8.77,5.28c-.19-9.36-1.49-38.06,1.51-44.52,4.92-10.61,41.78-31.14,51.23-35.48Z"/>
  <path class="st2" d="M306.72,561.5c9.48-.77,28.66,1.6,31.89,15.03l-.73,1.56c-6.99,1.88-10.11-6.1-15.57-8.47-9.74-4.54-27.29-1.68-33.3,10.52-14.83,30.11,7.38,51.26,30.69,47.32l.71-.29c5.35-2.34,13.54-9.54,18.14-7.61-1.71,5.46-15.86,13.38-20.76,14.21-18.79,3.22-42.03-6.74-44.47-33.82-.79-8.55,1.28-17.12,5.7-23.71,7.26-10.93,17.09-13.8,27.71-14.74Z"/>
  <path class="st5" d="M438.48,567c2.42-3.96.98-3.09,3.96-4.27,6.37,3.32,29.98,59.83,33.64,69.76-5.55.45-6.94,1.43-11.22-3-2.59-2.68-7.41-13.31-8.1-17-.72-2.01-1.27-4.39-1.83-6.52l-1.67-.36c-3.54-6.07-9.59-20.09-11.53-27.07l.39-2.3c-4.04-5.63-3.24-1.76-3.65-9.24Z"/>
  <path class="st3" d="M438.48,567c.4,7.48-.4,3.61,3.65,9.24l-.39,2.3-1.54-.27c-3.57,3.74-10.77,22.68-13.36,29.19,5.42.03,22.63,1.11,26.43-1.85l1.67.36c.56,2.13,1.11,4.51,1.83,6.52-11.69.75-20.57.84-32.26.65-3.77,6.68-5.82,21.46-13.13,18.79l-.29-1.41c4.36-14.61,20.33-49.69,27.38-63.52Z"/>
  <path class="st6" d="M396.32,566.09c3.95,3.76,6.61,6.57,7.33,13.16.62,5.65-.65,11.37-3.51,15.81-2.95,4.6-6.66,7.14-11.08,8.87-2.76-.22-5.33.12-7.32-1.98l.77-2.21c7.68-4.2,13.12-15.31,6.9-24.93-3.74-5.78-13.52-4.94-19.4-5.18l.04-.83c8.1-1.27,17.19-1.37,26.28-2.71Z"/>
  <path class="st5" d="M360.3,633.2c1.31-21.46.72-44.35.7-66l1.68-1.03c3.88,0,3.84,1.36,7.36,2.63l-.04.83-2.6.1c-2.01,4.97-.65,57.72.41,63.24l-7.52.23Z"/>
  <path class="st4" d="M360.3,633.2c-1.17-.99-2.06-1.26-1.91-3.08.71-8.49-1.44-63.9-.06-66.28,7.81-3.32,29.9-1.32,37.98,2.25-9.08,1.34-18.17,1.44-26.28,2.71-3.52-1.27-3.48-2.63-7.36-2.63l-1.68,1.03c.02,21.65.61,44.54-.7,66Z"/>
  <path class="st1" d="M367.82,632.97c-1.06-5.52-2.42-58.27-.41-63.24l2.6-.1c-2.86,4.77-1.92,22.29-1.66,29.25,3.13.15,11.46.34,14.17.86l-.77,2.21c1.99,2.1,4.56,1.76,7.32,1.98-7.44,2.44-13.08,1.41-20.62.45.06,6.89.56,22.61-.62,28.59Z"/>
</svg>