<?xml version="1.0" encoding="UTF-8"?>
<svg id="Layer_1" xmlns="http://www.w3.org/2000/svg" version="1.1" viewBox="0 0 210.19 249.03">
  <!-- Generator: Adobe Illustrator 30.5.1, SVG Export Plug-In . SVG Version: 2.1.4 Build 3)  -->
  <defs>
    <style>
      .st0 {
        fill: #223429;
      }
    </style>
  </defs>
  <path class="st0" d="M0,.55c11.45-.29,44.78-1.31,54.54.47l.12,1.08c-2.65,3.21-9.48,4.21-11.97,6.51-4.98,4.6-3.79,17.6-3.86,23.76-.07,6.34,0,12.32,0,18.43l.22,72.58c11.57,4.81,24.34,10.93,35.9,16.1l96.53-53.6c.03-23.68.58-47.85-.62-71.39-.34-6.67-14.38-10.34-15.3-13.16,3.2-1.46,52.56-1.13,54.45.18l-.23,1.35c-3.02,2.51-8,2.76-10.17,4.35-8.04,5.9-5.65,28.9-5.67,37.99l-.04,53.11v85.94c0,14.53-.02,29.55.13,44.05.19,17.89,11.02,12.54,16.16,18.87l-.25,1.07c-5.68,1.21-30.01.66-37.1.62-4.62.07-12.72.48-17.05-.61l-.35-.99c3.16-4.29,15.23-2.96,15.8-15.15.38-7.96.3-16.15.3-24.15l-.04-45.4c-.04-14.44,0-28.88.13-43.32.09-9.92.53-21.27-.24-31.07-32.12,21.11-64.14,43.37-96.35,64.08-10.23-3.84-25.1-12.02-36.06-16.81v66.59c.02,10.11-.22,20.8.45,30.92.91,13.68,15.41,9.54,15.27,15.1-2.62,1.15-50.48,1.33-54.43.16l-.22-.84c2.33-2.78,11.61-4.36,14.17-8.34,1.66-2.57,2.24-8.31,2.26-11.3.05-14.62-.08-29.27-.05-43.88l.04-98.87.02-46.75c.02-20.01,3.83-29.26-15.75-34.99C.1,3.05.1,1.28,0,.55Z"/>
</svg>