<?xml version="1.0" encoding="UTF-8"?>
<svg id="Layer_1" xmlns="http://www.w3.org/2000/svg" version="1.1" viewBox="0 0 690.26 690.26">
  <!-- Generator: Adobe Illustrator 30.5.1, SVG Export Plug-In . SVG Version: 2.1.4 Build 3)  -->
  <defs>
    <style>
      .st0 {
        fill: none;
        stroke: #01001e;
        stroke-miterlimit: 10;
        stroke-width: 16px;
      }
    </style>
  </defs>
  <path d="M384.44,201.83c35.48.4,70.95.41,106.43.04l-.04,7.53c-21.35,2.17-30.92,3.5-31.06,27.98-.05,8.71-.14,17.88-.15,26.64v58.84s0,78.25,0,78.25c0,14.02-.02,28,.32,42.01.54,22.22,14.06,22.34,32.39,24.5-.14,2.38-.14,5.15-.19,7.57l-12.82-.2c-31.51-.58-63.03-.41-94.54.49l-.24-8.11c28.98-4.25,32.64-3.48,31.85-36.14-.14-5.55-.03-12.2-.03-17.88-.14-23.82-.1-47.63.14-71.45-42.91-.44-86.19,1.05-129.16.16-7.11-.15-14.36-.09-21.46.06-1.04,17.26.34,37.86-.03,55.56.06,16.84-.28,33.65.32,50.47.65,18.34,17.54,18.14,31.53,19.28-.2,2.5-.13,5.24-.13,7.76-12.1.24-25.79-.34-38.07-.4-22.84-.21-45.68-.02-68.52.59l-.12-7.96,7.86-1.06c14.06-1.91,23.18-3.64,23.8-20.54.51-13.76.21-27.58.18-41.35l-.02-75.16.14-66.99c-.01-11.25.5-27.45-1.33-38.21-2.77-16.25-24.1-11.63-29.96-15.5-.72-2.23-.35-4.31-.17-6.68,4.79-.15,9.9.06,14.7.18,30.2.78,60.51-.38,90.67-.2l.46,7.28c-6.7.99-22.17,1.83-26.34,7.07-7.18,9-5.06,34.25-5.04,45.57l.15,63.08c16.86.44,35.47.04,52.45.03l97.87.03.08-62.72c.01-11.41.34-22.75-.44-34.14-1.22-17.71-17.64-17.62-31.4-18.56l-.08-7.74Z"/>
  <circle class="st0" cx="345.13" cy="345.13" r="337.13"/>
</svg>