<?xml version="1.0" encoding="UTF-8"?>
<svg id="Layer_1" xmlns="http://www.w3.org/2000/svg" version="1.1" viewBox="0 0 298.33 426.16">
  <!-- Generator: Adobe Illustrator 30.5.1, SVG Export Plug-In . SVG Version: 2.1.4 Build 3)  -->
  <defs>
    <style>
      .st0 {
        fill: #1e3e33;
      }
    </style>
  </defs>
  <path class="st0" d="M5.37.35l53.53-.05-.17,207.05c25.37.95,54.47.09,80.1.19.45,7.01.22,18.61.25,25.96-25,1.16-54.59-.39-80.47.08.48,30.35.04,62.51.03,93l-.12,99.18c-18.93.35-38.85-.09-57.85-.15-.9-23.42-.24-55.62-.29-79.78l-.1-160.17-.02-117.6C.23,48.73-.46,20.96.53,2.15,2.3,0,2.22.7,5.37.36h0Z"/>
  <path class="st0" d="M239.84.01l57.93.04c.96,27.01.05,63.23.04,91.34l.15,176.88.18,104.8c.02,11.64.63,42.44-.49,52.46l-57.9-.16c-1.21-24.18-.16-65.35-.19-90.63l-.1-191.2-.21-98.69c-.02-8.84-.62-38.4.59-44.85h0Z"/>
  <path class="st0" d="M214.91,178.28l1.57.89c1.85,3.92,1.11,52.66,1.11,61.42l-.04,185.08c-15.3.97-37.74.2-53.55.21-2.13-.2-2.09.01-3.68-1.7-1.02-7.48-.55-53.65-.57-63.41-.23-50.92-.26-101.85-.07-152.78,17.96-10.16,36.94-19.43,55.23-29.71h0Z"/>
  <path class="st0" d="M135.37,281.07c.96.04.29-.04,1.95.73,1.1,10.47.51,36.91.52,48.81l-.07,95.18-54.07.25-2.03-1.17c-1.89-6.06-.76-100.45-.67-113.61,18.41-9.81,36.13-20.28,54.38-30.2h0Z"/>
</svg>