<?xml version="1.0" encoding="UTF-8"?>
<svg id="Layer_1" xmlns="http://www.w3.org/2000/svg" version="1.1" viewBox="0 0 707.47 436.37">
  <!-- Generator: Adobe Illustrator 30.5.1, SVG Export Plug-In . SVG Version: 2.1.4 Build 3)  -->
  <defs>
    <style>
      .st0 {
        fill: #1f543c;
      }

      .st1 {
        fill-opacity: 0;
      }

      .st1, .st2, .st3 {
        fill: #f7f2e5;
      }

      .st2 {
        fill-opacity: .06;
      }

      .st3 {
        fill-opacity: .06;
      }
    </style>
  </defs>
  <path class="st0" d="M340.72,0c1.78.07,3.55.21,5.32.42,3.38.41,28.81,8.08,29.73,9.39,8.63,16.37,13.37,2.99,21.16,3.73,13.88,1.33,31.29,9.96,46.06,11.51,3.45,4.88,6.67,8.22,7.87,14.28-1.86,11.78-14.34,4.19-20.01,10.96l.49,1.41c6.28,4.06,21.22-2.55,28.68-3.1,7.23-.53,13.87-.87,21.16-.46,11.44.65,19.17,7.53,30.73,5.35,4.94-.93,8.51.77,12.16,4.84,2.19,8.16-4.92,6.18-6.5,13.13,2.03,4.32,5.49,3.25,8.29,7.35-.16,3.72-1.77,5.7-3.55,8.82,16.17,3.18,26.44,3.22,41.25,14.86,4.81,3.78,16.04,12.45,21.03,14.77,1.97,3.32,1.66,1.57,1.3,5.34-1.44,2.11-2.57,3.85-3.9,6.07l.58,2.13c4.2,3.94,7.54-1.04,11.98,4.1,5.56,6.44,19.22,13.46,23.94,19.17,1.15,3.53,1.27,3.29.58,6.95-4.91,8.71-27.29,1.34-35.71,3.99-7.99,2.51-13.99,6.99-21.84,10.47-4.47-2.46-8.91-5.02-13.31-7.67-10.97,7.59-14.25,7.41-26.71,5.89-7.36-8.3-10.4-6.22-19.67-4-3.52-2.07-7.62-3.99-11.27-5.82-3.57,2.65-6.74,4-7.61,9.22,1.67,2.94,19.16,8.19,25.28,11.37,11.94-6.71,15.14-5.48,28.39-4.51,2.15,3.05,4.52,5.92,6.82,8.8,11.3.58,18.22,5.08,29.22,6.53,11.5-10.9,24.83-16.04,38.93-10.92,7.32-3.04,17.13-6.95,24.67-3.93,2.05,2.42,2.93,3.66,3.41,7.6,1.41,11.59,13.86,9.35,21.26,13.28,5.49,2.91,8.45,7.37,13.39,10.72,3.57,2.42,6.97,1.51,10.39,6.28.79,3.71.75,3.43.07,7.19-8.49,15.19-38.59,1.39-43.95,3.36-9.68,11.24,2.95,6.29,6.51,14.98-4.34,11.03-24.66,4.6-31.73.87-10.75,3.84-11.52,5.67-19.48-5.05-12.42-.69-21.11.34-31.64,9.83-.09,1.85-.63,11.27-1.04,12.33-4.53,11.62-38.15,2.52-41.32,12.34,5.14,6.26,10.34,17.75,18.02,14.16,5.33-2.5,22.36-4.24,25.88-6.31,3.83-8.63,8.86-8.58,16.35-8.99,8.22-.46,16.63-.8,24.85-.78,10.31-16.18,19.3-12.88,32.65-3.93,9.29-1.35,15.37-1.32,24.63-1.29,3.3,2.8,4.42,3.37,6.6,7.35,2.1,16.53-18.7,14.45-23.44,23.46l.44,2.2c13.09,13.02,15.6-6.63,28.25,4.17,6.53,5.58,13.69-2.5,18.13,9.78,1.58,4.38,7.32,4,10.86,5.84,1.88,2.83,1.81,2.58,2.12,6.24-3.1,10.22-8.73,4.08-15.02,8.52-1.86,6.14,2.03,5.04.78,11.47-5.64,4.71-25.91-1.3-32.25-3.61-7.44-2.7-12.05-8.49-21.02-9.39-12.7-3.38-26.22,17.34-37.21,16.64-15.91-1-22.57-10.62-40.34-9.54-8.15-6.18-20.65-16.73-30.13-17.91-11.93-1.49-20.52.98-32.88-3.77-7.17-2.36-12.01-10.02-19.28-11.81-5.06-1.24-26.61,3.42-27.39,10.5,11.02,5.91,15.4-.41,28.06,12.17,13.54,1.21,18.88,5.16,31.24,11.36,4.21,2.11,14.8-3.91,16.35,4.64-4.63,5.08-12.2,4.77-17.86,3.75l-1.35,1.65c-.11,3.62-.12,4.74-.67,8.38l-1.54.86c-12.03-4.01-2.59-26.44-26.09-18.07l-1.16.43c-13.35-8.74-13.96-18.11-30.2-7.48-24.65-34.31-43.75-14.03-61.06,15.28,21.21,22.73-8.48,22.82,4.52,45.85,4.24,7.51,7.69,12.39,10.73,20.96,7.67-3.52,9.19-6.62,15.96-1.03,4.7-.98,7.79-9.68,12.61-4.59l-.13,5.12,1.02.63c2.22-1.9,3.56-3.45,6.21-4.02,4.97,4.74-1.6.42,1.04,7.37,5.67,2.82,9.52,1.58,15.41.57,25.29-4.32,50.99,5.37,76.26,5.76,8.7.14,15.58.36,24.01,2.96,2.38,3.1,1.78,1.35,2.29,5.16-.44.46-.87.91-1.31,1.37-62.37-.44-169.75-.74-227.87-.47-61.27-.62-123.29.39-184.63.59,16.14-7.79,26.04-5.65,42.54-7.61,4.34-.51,13.45-6.89,18.77-6.83,5.9-.45,12.77,2.47,18.57,2.36,15.17-.28,29.05-7.38,44.7-6.06,5.59.47,14.41-2.3,20.48-1.54-1.06-.13,1.75-4.38,2.35-5.02,6.44-.44,21.47,6.97,25.86,3.22,6.52-15.43,15.89-31.97,20.88-47.39.49-1.51.11-12.48.03-14.94-2.15-3.47-4.39-7.74-6.42-11.4-5.34-2.04-10.6-2.47-16.38-5.41-7.17-3.64-10.47-7.47-17.86-10.91-4.92,2.1-13.9,5.2-11.95,13.19,4.41,5.43,10.53,4.3,11.64,11.16l-1.31,1.23c-15.46-.9-10.57,6-19.91-5.94-1.07-1.36-25.17,5.27-31.21,2.22l-.47-1.89c3.99-9.88,18.3-3.74,26.98-10.25,5.47-10.81,3.61-5.4,12.33-12.03l.17-1.64c-4.44-2.09-29.39.55-34.14,3.1-17.29,9.26-15.32,15.36-35.68,7.49-9.1,3.54-14.44,10.37-24.67,13.01-16.08,4.15-35.67-22.9-45.85.68-5.66,2.46-20.98,9.59-26.23,10.28-12.67,1.69-17.19-.21-28.65,9.7-4.86,4.2-10.34-10.03-19.27-6.08-7.14,9.52-5.78,2.83-12.2,3.38-9.36.79-34.21,15.79-37.62-3.73,1.93-7.96,7.13-3.2,13.89-7.9,4.28-10.59,11.49-7.19,20.03-6.37,4.22-5.06,6.71-14.52,8.59-15.32,21.3-8.96,46.03-8.25,68.26-6.45,2.82.22,9.79,6.15,14.09,6.07,6.76-.13,17.05-4.13,22.92-1.99,7.19,2.62,11.06,5.76,19.05,8.02l1.35.38c7.62-7.16,12.58-11.05,21.71-14.62,5.9,1.99,14.6,6.14,19.59-.08.11-1.95.39-3.5-1.32-5.27-7.92-8.25-19.5-6.57-29.07-5.25-7.99,1.1-16.44,2.36-24.35,4.31-6.36,1.56-14.2,4.35-20.55,3.44-8.9-1.28-17.83-8.86-27.08-8.27-8.72.57-17.41,7.13-26.4,6.08-7.07-.49-16.01-9.31-22.77-8.2-4.72.78-9.86,8.42-15.18,11.14-8.26,4.23-15.7,3.86-24.4,4.01-7.38-4.85-7.88-6.05-12.26-14.52-7.33-4.22-23.84-2.44-26.12-10.12,3.45-10.35,26.58-17.8,32.2-25.61,2.32-3.23,3.35-4.83,6.05-8.13,9.22-2.61,11.64-2.05,20.97-1.12,13.06-21.59,28.3-9.87,45.31-5.31,4.26,1.14,9.84.96,14.26.93,3.26-7.13,3.91-8.92,9.61-12.89,9.29.09,15.57,1.74,24.54,2.59,7.94.74,3.86-3.93,7.37-8.4,11.73-4.36,20.78,8.22,29.66-.55-1.83-2.79-6.97-2.77-10.88-5.63-13.54-9.91-30.74-1.59-45.07-.46-3.66.28-12.58-3.17-16.8-2.12-16.17,4.02-16.45,9.29-32.48,1.91-6.85,2.47-29.33,6.95-27.67-7.73,2.14-4.21,4.88-6.07,8.17-8.98l.07-1.68c-4-4.45-20.93.47-15.51-17.23,2.18-7.12,13.92-.06,15.34-10.05.27-1.86,1.55-4.1,2.5-5.55,3.72-2.42,5.94-1.81,10.31-2.23,2.13-3.79,1.33-7.18,2.38-11.33,2.18-8.6,9.68-5.19,14.09-6.46,15.98-4.58,19.06-6.38,34.5,1.95,14.47-12.95,13.48-6.7,30.7-12.56,2.59-.88,3.33-1.55,4.23-4.09-6.18-13.43-37.6,12.55-42.3-11.56,1.52-3.55,1.8-2.92,4.95-5.44,4.31-.02,6.23,1.14,7.72-4.03-1.14-6.36-2.93-10.17,1.85-14.59,11.42-10.57,25.76,2.96,36.89-6.13,5.23-4.28,1.22-15.21,6.46-19.45,8.55-6.92,22.41-4.81,32.39-4.36,5.94-4.56,10.8-9.24,17.72-8.86,2.89.16,5.5.08,8.18-1.2l-.15-1.3c-8.18-4.7-24.08-2.26-28.09-12.53l1.05-2.63c7.55-7.05,24.99-11.33,34.31-12.91,4.42,2.33,7.27,3.7,11.38,6.95,3.83-2.46,16.25-9.19,17.44-13.18-5.27-19.4,3.77-18.53,16.91-20.04,5.73-.66,12.54.28,18.32.78,9.53-7.63,20.5-14.95,31.84-16.61ZM436.29,263.97c-5.66-3.05-10.8-6.96-17.06-4.02-7.6,3.57-7.92,13.86-5.07,22.01,3.48,9.93,13.95,16.27,22.17,18.07,9.7-2.75,19.71-7.4,29.15-11.44,12.87-19.14,15.18-12.65,33.51-15.56,7.96-1.27,29.55-17.69,30.24-29.22l-1.02-2.83c-5.29-1.66-11.94,6.78-15.27,5.45-13.28-5.32-14.64-7.78-28.66-6.93-1.54,3.75-1.47,1.94-.7,5.56,4.1,3.58,9.06,1.1,12.59,4.52.31,2.6-.17,4.23-1.57,6.31-7.41,11.02-22.24-1.94-30.3-2.87-8.37-.97-20.36,6.71-28.01,10.95ZM299.82,196.69c19.63-2.56,18.36.71,36.06,7.42l4.26-9.77-12.67-5.15c-4.69-.82-5.96.08-7.27-6.6,4.09-9.96,22.7-2.03,26.81-9.5-1.21-5.21-7.67-10-11.35-12.98-26.25,1.1-28-14.25-42.71-13.69-12.22,12.45,3.12,35.97,6.86,50.27ZM238.76,201.14c15.23,2.17,10.07-7.48,24.14-8.87,6.1-.6,14.31,7.92,20.51,8.05,2.68-2.81,2.04-1.12,2.49-4.9-4.78-9.45-31.21-17.58-40.36-18.45l-7.49-15.26c-8.74-3.94-13.98-7.39-23.41-6.7-2.4,1.79-3.6,2.29-4.85,5.4,2.02,10.3,21.11,4.5,27.83,13.87,3.66,19.14-24.2,10.11-32.22,16.88l-.78,2.58c1.53,3.05,1.81,2.7,4.46,4.68,1.55,6.08,3.65,17.92,7.87,20.92,9.65-2.94,4.96-16.84,21.79-18.2ZM581.55,333.13c4.71,1.62,10.23,4.42,14.35.94,8.91-7.56,10.9-10,21.12-15.73-5.5-2.9-8.35-4.98-14.32-5.35-9.22.68-30.37,7.94-36.14,15.5l.21,1.9c5.01,3.36,9.24,2.95,14.78,2.74ZM241.52,150.08c6.74,6.77,6.83,9.39,11.87,16.75,8.35.2,8.95.38,16.94,4.42,3.47,1.87,4.83,3.45,8.17,2.9,3.96-8.12-11.24-22.91-16.4-26.86-2.14-1.64-5.6-1.63-8.09-1.69-4.24,1.34-8.42,2.48-12.48,4.48ZM364.96,270.08c-5.83-7.01-10.72-11.6-11.43-22.25-.55-8.24,5-16.08,4.22-21.62-2.91-3.01-18.83-4.56-23.17-4.44l-12.95,3.99c17.78,8.89,18.18,14.59,17.75,37.64,4,5.69,9.79,17.16,14.22,17.77,1.29-1.09,2.72-2.24,3.95-3.41,3.19-2.93,4.58-4.26,7.4-7.68ZM228.21,270.19c3.38,4.55,8.8,6.53,13.51,4.31-3.32-7.04-7.53-5.15-13.51-4.31ZM535.82,256.82c6.58,3.51,7.88,4.46,14.68,2.35,2.09-3.13,5.73-12.81,5.81-16.92-2.31-6.67-6.64-5.36-11.99-5.17-5.31,7.75-6.09,9.55-8.5,19.74ZM416.29,234.26c-5.26.07-13.2-.51-17.74,1.42-1.91,3.89.78,10.06,2.2,13.97,1.61.42.91.61,2.14-.31,7.1-8,9.43-10.09,19.82-11.1l.98-1.41c-1.53-3.5-4.62-3.03-7.41-2.57ZM432.41,125.58c-3.51,1.21-6.37,2.28-10.02,2.91-1.81,5.57-2.99,9.55-6.35,14.08-5.05,6.79-15.27,8.72-15.03,19.4l1.47,2.36c2.72.4,2.57.53,5.12-.57,17.53-1.63,18.86-8.36,30.7-21.33.72-4.8,1.89-9.27.73-13.72-2.46-3.14-2.88-3.13-6.62-3.13ZM243.9,288.3c-4.5-2.5-6.63-3.77-11.52-5.26-3.1,1.68-6.93,3.9-10.29,4.43-6.44.99-23.7-3.12-27.6,4.25.3,3.49-.19,1.86,1.96,4.8,7.68,3.57,13.96-3.3,23-1.12,17.5,4.21,17.23,11.92,35.94,11.57,10.24.12,27.01-5.75,38.91-7.06-20.18-9.15-26.06,3.44-39.25-16.8-3.88,1.68-7.34,3.18-11.15,5.19ZM332.37,114.35c-2.93,2.63-4.69,3.6-6.13,7.52-.85,11.48,20.73,32.47,26.98,40.7,2.37,3.13,6.29,4.64,9.63,5.59,3.62-2.56,2.42-.81,4.19-4.84.02-7.33-11.26-17.16-16-19.71-7.99-4.29-12.51-26.76-18.67-29.26ZM281.35,282.75c-1.21-6.94-11.87-21.87-17.26-22.33l-28.59-2.58c3.62,10.24,7.49,2.8,12.56,6.31,15.57,10.8,13.3,23.37,33.29,18.6ZM136.61,292.13l-.67,2.92c7.89,17.26,21,12.56,34.03,8.93l1.73-1.75c-3.78-9.43-27.19-10.78-35.1-10.1ZM383.56,134.09c-1.09,9.72-4.85,24.71-2.25,32.36,7.4,7.45,8.8-2.29,9.2-9.18,3.71-12.3,15.18-18.63,24.32-28.29-5.76-2.46-14.99-7.85-20.53-7.92-4.23,4.7-6.89,7.83-10.74,13.03ZM140.86,206.72c6.38,11.48,20.93,7.83,30.99,11.04,12.6,4.03,19.76,15.79,33.03,9.72l.1-1.67c-6.08-4.97-17.73-5.91-24.8-9.35-14.25-6.92-23.71-11.69-39.32-9.74ZM371.59,147.93c5.19-16.57-8.54-21.55-13.39-33.95-1.32-3.39.28-8.98-5.37-10.65-1.97-.66-7.23.1-9.23.45-4.19,19.43,19.68,33.25,27.98,44.15ZM382.26,289.31c-4.84,6.58-11.46,13.91-12.18,23.19,1.41,4.75,4.12,4.89,8.01,3.49,22.82-16.86,19.28-16.66,11.88-43.86-.55-2.04-.06-13.75.03-16.71-4.55-5.62-9.32-14.8-13.9-16-3,3.15-2.61,1.81-3.44,5.8.91,4.3,2.01,5.87,4.01,9.6,7.65,14.25,7.95,18.52,5.6,34.49ZM489.42,137.25c-5.47,2.77-10.68,5.07-15.57,9.19-3.7-.63-7.77-1.45-11.46-1.69-7.89,5.61-8.01,5.76-17.41,6.33-2.63,2.25-4.57,3.28-5.59,6.95,1.98,6.77,11.38,4.78,15.91,3.34,5.99,2.94,11.24,8.07,17.95,7.51,2.86-2.68,2.87-14.72,10.55-18.37,6.38-3.02,11.59-5.73,17.18-10.68-3.6-1.2-8.01-3.16-11.56-2.59ZM288.8,256.92c-3.56,1.89-4.61,1.4-5.66,4.61,3.94,10.68,7.79,1.4,9.05,21.46,1.13,2.36,1.45,2.76,3.16,4.18,14.97,12.44,14.2,27.73,35.68,28.81l2.36-1.81c1.94-23.63-25.6-47.43-40.15-57.55-.31-.21-3.78.21-4.44.3ZM498.79,285.62c-3.58.86-7.29,1.16-9.97,4.05-.59,5.69,15.03,14.7,19.86,18.71,9.86-.55,12.91-.11,22.55,1.7,15.59,2.91,28.45,13.1,43.02,2.63,2.74-2.35,5.43-3.93,6.39-7.73-.97-5.5-2.12-5.71-6.2-8.98-1.83-1.45-3.67-2.9-5.51-4.33-16.16.42-29.2,12.36-39.94,7.78-12.85-5.5-12.17-15.64-30.2-13.83Z"/>
  <path class="st1" d="M432.41,125.58c3.74,0,4.16,0,6.62,3.13,1.16,4.45-.01,8.92-.73,13.72-11.84,12.97-13.17,19.7-30.7,21.33-2.56,1.1-2.41.97-5.12.57l-1.47-2.36c-.24-10.68,9.98-12.61,15.03-19.4,3.36-4.52,4.54-8.51,6.35-14.08,3.65-.63,6.5-1.71,10.02-2.91Z"/>
  <path class="st1" d="M332.37,114.35c6.16,2.5,10.68,24.97,18.67,29.26,4.73,2.55,16.02,12.38,16,19.71-1.76,4.03-.57,2.28-4.19,4.84-3.34-.95-7.26-2.46-9.63-5.59-6.25-8.23-27.83-29.23-26.98-40.7,1.45-3.92,3.2-4.89,6.13-7.52Z"/>
  <path class="st2" d="M140.86,206.72c15.6-1.95,25.07,2.82,39.32,9.74,7.07,3.44,18.73,4.38,24.8,9.35l-.1,1.67c-13.27,6.07-20.42-5.69-33.03-9.72-10.07-3.21-24.61.44-30.99-11.04Z"/>
  <path class="st1" d="M544.32,237.08c5.35-.19,9.68-1.5,11.99,5.17-.08,4.11-3.72,13.79-5.81,16.92-6.8,2.11-8.1,1.16-14.68-2.35,2.41-10.19,3.19-11.99,8.5-19.74Z"/>
  <path class="st2" d="M416.29,234.26c2.79-.46,5.87-.93,7.41,2.57l-.98,1.41c-10.39,1.01-12.72,3.1-19.82,11.1-1.23.92-.53.73-2.14.31-1.42-3.91-4.11-10.08-2.2-13.97,4.54-1.93,12.49-1.35,17.74-1.42Z"/>
  <path class="st3" d="M228.21,270.19c5.98-.84,10.19-2.73,13.51,4.31-4.71,2.22-10.14.24-13.51-4.31Z"/>
</svg>