<?xml version="1.0" encoding="UTF-8"?>
<svg id="Layer_1" xmlns="http://www.w3.org/2000/svg" version="1.1" viewBox="0 0 345.26 364.75">
  <!-- Generator: Adobe Illustrator 30.5.1, SVG Export Plug-In . SVG Version: 2.1.4 Build 3)  -->
  <defs>
    <style>
      .st0 {
        fill: #070707;
      }

      .st1 {
        fill: #474a46;
      }

      .st2 {
        fill: #636563;
      }

      .st3 {
        fill: #2c4a3e;
      }

      .st4 {
        fill: #8d8f8d;
      }
    </style>
  </defs>
  <path class="st3" d="M241.96,0c29.69,1.46,49.44,2.68,79.55,2.24,2.66-.38,16.61-1.67,18.56-.62l.1.17c-.82,1.41-4.26,1.77-5.68,2.07-34.15,17.29-28.04,64.96-27.96,97.15l.2,84.9.02,76.06c0,15.95-.45,34.8,1.04,50.42.95,9.34,3.58,18.44,7.77,26.85,5.22,10.38,10.77,15.77,20.39,21.74,2.7.73,6.77,2.5,9.33,3.68-5.58-.27-11.64-.37-17.12-.72-28.23-.72-57.62-.2-85.92.04,9.33-6.77,21.39-18.35,21.31-30.26-.22-29.91,6.43-92.94,1.25-120.3,2.88-4,1.65-8.75,1.02-13.49-1.14-8.6-.43-34.06-.54-43.8-.39-35.63.4-71.66-.29-107.27-.47-24.43-5.75-32.89-23.01-48.87Z"/>
  <path class="st1" d="M335.92,360.99c2.7.73,6.77,2.5,9.33,3.68-5.58-.27-11.64-.37-17.12-.72,3.65-.9,4.54-1.09,7.78-2.96Z"/>
  <path class="st2" d="M321.5,2.24c2.66-.38,16.61-1.67,18.56-.62l.1.17c-.82,1.41-4.26,1.77-5.68,2.07-4.01-1.97-7.79-1.18-12.97-1.63Z"/>
  <path class="st3" d="M91.79.83c4.96-.56,14.86-2.45,5.71,3.55-23.8,22-15.46,62.67-16.95,92.97-.4,8.16-.46,62.17,1.16,66.61l.16,3.09c-1.92,1.58-10.87,7.39-13.55,9.35-11.64,8.44-20.17,15.73-30.37,25.92-1.02-33.84.58-68.5-.14-102.48-.69-32.24,3.16-73.68-26.1-95.83-.17-.97-.35-1.93-.53-2.9,29.54,2.11,50.81,1.04,80.63-.28Z"/>
  <path class="st1" d="M91.79.83c4.96-.56,14.86-2.45,5.71,3.55-1.92-1.17-3.82-2.35-5.71-3.55Z"/>
  <path class="st3" d="M37.91,219.03c14.4-19.18,23.88-26.71,42.41-41.58-.44,33.91-.59,67.82-.45,101.73.05,18.95-.79,39.14,2.07,57.85,1.91,12.5,9.93,19.57,19.11,27.27-27.98-.95-55.98-1.15-83.97-.59-2.65.45-15.58,2.04-17.09.08l.2-.18-.11-.34c.34.02.67.03,1.01.05l.36-.48c.32.04.64.08.96.13,2.76-1.04,4.53-1.76,7.17-3.03,20.03-16.33,27.15-33.13,27.87-58.93.76-27.14-.75-54.92.45-81.97Z"/>
  <path class="st4" d="M2.43,362.96c2.76-1.04,4.53-1.76,7.17-3.03l-.53,3.66c2.87-.05,5.17-.01,8.02.13-2.65.45-15.58,2.04-17.09.08l.2-.18-.11-.34c.34.02.67.03,1.01.05l.36-.48c.32.04.64.08.96.13Z"/>
  <path class="st3" d="M2.43,362.96c2.76-1.04,4.53-1.76,7.17-3.03l-.53,3.66c-2.41-.15-4.25-.3-6.64-.62Z"/>
  <path class="st0" d="M81.71,163.96c23.55-10.73,40.86-16.66,67.31-16.05,45.37,1.06,85.82,27.19,114.96,60.61l1.21-.33c.59-3.71.58-4.63.6-8.25.63,4.75,1.86,9.49-1.02,13.49-50.15-56.24-112.23-81.53-182.9-46.39l-.16-3.09Z"/>
  <path class="st1" d="M8.51.32l2.66.79c.19.96.36,1.93.53,2.9-1.96-.45-3.56-.78-5.54-1.13L8.51.32Z"/>
  <path class="st4" d="M6.16,2.87c-.72-.47-2.61-1.31-2.86-2.2l.15-.21c1.35-.51,3.61-.22,5.06-.15l-2.35,2.55Z"/>
</svg>