<?xml version="1.0" encoding="UTF-8"?>
<svg id="Layer_1" xmlns="http://www.w3.org/2000/svg" version="1.1" viewBox="0 0 457.33 388.17">
  <!-- Generator: Adobe Illustrator 30.5.1, SVG Export Plug-In . SVG Version: 2.1.4 Build 3)  -->
  <defs>
    <style>
      .st0 {
        fill: #4a2c6e;
      }
    </style>
  </defs>
  <path class="st0" d="M418.79.22c19.37.52,33.58,10.98,37.47,30.4,4.35,21.64-5.19,53.57-17.57,71.34-42.94,61.63-121.18,91.26-192.03,106.08-29.57,7.2-60.83,8.79-90.32,15.54-46.83,10.72-103.28,35.26-130.96,76.31-13.32,19.76-23.32,58.61-.78,75.2,3.86,2.84,11.45,4.1,16.15,2.44,37.55-15.78,54.6-65.3,70.64-99.67,5.01-11.21,9.41-27.36,14.44-36.23,8.3-4.24,32.03-10.13,41.12-12.36-16.97,55.06-61.5,157.39-129.1,158.82-14.67-.37-27.93-7.02-33.77-20.84-7.28-17.23-4-44.68,3.35-61.34,33.1-75.08,124.29-109.55,198.62-126.59,21.49-4.64,47.42-7.24,69-10.44,29.16-4.32,57.09-12.41,83.86-24.54,33.01-15.62,67.38-38.1,81.27-73.49,7.54-16.62,10.42-51.74-11.35-59.51-21.72-7.75-44.57,23.8-53.59,38.72-13.48,22.31-23.47,44.16-32.78,68.24-3.53,9.14-8.3,19.12-11.11,28.11l-.15.48c-9.76,3.78-32.72,10.51-42.88,11.93,2.77-8.61,6.78-17.96,10.1-26.45C317.9,82.75,357.53,2.94,418.79.22Z"/>
  <path class="st0" d="M161.28.18c5.2-.56,10.67.18,15.64,1.75,12.19,3.83,21.49,13.08,27.25,24.28,19.88,38.6-3.88,108.38-16.6,148.1-16.94,3.65-28.02,7.95-44.21,13.99,3.08-12.83,8.52-26.57,12.08-39.56,7.88-28.78,15.16-57.07,18.93-86.67,1.79-13.74,1.07-25.7-2.63-39.09-7.76-28.04-41.43-.65-53.83,9.65-22.32,18.54-38.27,43.43-49.56,70.27-3.79-.8-6.63-1.84-10.3-3.11,5.14-12.84,19.59-36.41,28.14-47.15C104.28,29.92,131.55,3.92,161.28.18Z"/>
  <path class="st0" d="M312.3,199.06c.87,1.05-.07,2.54-.48,3.8-12.28,37.7-39.08,124.41-27.26,160.55,1.55,4.74,4.23,11.17,8.99,13.38,4.42,2.06,10.02.51,14.32-1.19,34.73-13.73,65.16-52.59,79.57-86.38,3.42,1.22,5.93,1.91,9.46,2.81-4.79,11.45-9.15,18.61-15.72,28.96-19.42,28.7-64.78,80.16-104.32,64.18-37.31-15.07-35.34-66.29-28.15-98.98,5.51-25.04,11.45-49.32,21.18-73.5,15.34-5.09,26.42-7.55,42.41-13.62Z"/>
</svg>