<?xml version="1.0" encoding="utf-8" ?><svg xmlns="http://www.w3.org/2000/svg" xmlns:xlink="http://www.w3.org/1999/xlink" width="1024" height="1024" viewBox="0 0 1024 1024"><path fill="white" d="M0 0L1024 0L1024 1024L0 1024L0 0Z"/><path fill="#4A2C6E" d="M702.781 318.218C722.152 318.74 736.356 329.199 740.256 348.623C744.601 370.264 735.064 402.195 722.681 419.965C679.737 481.592 601.498 511.229 530.651 526.043C501.08 533.239 469.821 534.837 440.331 541.587C393.501 552.307 337.052 576.842 309.374 617.899C296.051 637.663 286.053 676.512 308.594 693.097C312.45 695.934 320.048 697.193 324.745 695.538C362.296 679.754 379.346 630.236 395.38 595.872C400.395 584.664 404.787 568.515 409.823 559.644C418.128 555.408 441.852 549.517 450.948 547.288C433.982 602.345 389.448 704.678 321.846 706.107C307.175 705.736 293.911 699.085 288.076 685.267C280.798 668.033 284.076 640.583 291.421 623.925C324.523 548.847 415.709 514.371 490.04 497.331C511.529 492.694 537.455 490.091 559.037 486.895C588.194 482.577 616.131 474.486 642.9 462.357C675.905 446.737 710.279 424.26 724.174 388.867C731.717 372.251 734.592 337.125 712.825 329.356C691.11 321.606 668.255 353.158 659.24 368.075C645.76 390.381 635.767 412.234 626.464 436.314C622.933 445.453 618.167 455.438 615.358 464.429L615.212 464.912C605.448 468.691 582.489 475.423 572.337 476.843C575.103 468.231 579.113 458.88 582.44 450.391C601.895 400.744 641.522 320.933 702.781 318.218Z"/><path fill="#4A2C6E" d="M445.276 318.18C450.471 317.622 455.944 318.365 460.913 319.927C473.101 323.756 482.398 333.009 488.162 344.203C508.037 382.803 484.285 452.587 471.564 492.304C454.625 495.951 443.548 500.253 427.355 506.292C430.439 493.458 435.878 479.718 439.433 466.728C447.309 437.95 454.595 409.663 458.363 380.058C460.153 366.317 459.435 354.36 455.731 340.97C447.974 312.928 414.298 340.324 401.896 350.625C379.574 369.165 363.623 394.054 352.34 420.9C348.554 420.101 345.71 419.061 342.043 417.792C347.178 404.953 361.633 381.378 370.184 370.639C388.274 347.919 415.542 321.92 445.276 318.18Z"/><path fill="#4A2C6E" d="M596.294 517.051C597.162 518.099 596.224 519.587 595.813 520.85C583.535 558.545 556.729 645.259 568.556 681.398C570.109 686.143 572.789 692.564 577.542 694.779C581.959 696.838 587.557 695.291 591.864 693.587C626.599 679.852 657.028 641 671.434 607.209C674.851 608.433 677.364 609.118 680.895 610.016C676.102 621.469 671.742 628.623 665.179 638.973C645.76 667.669 600.404 719.129 560.855 703.152C523.549 688.081 525.515 636.865 532.705 604.167C538.213 579.124 544.158 554.851 553.882 530.669C569.219 525.58 580.3 523.118 596.294 517.051Z"/></svg>