<?xml version="1.0" encoding="utf-8" ?><svg xmlns="http://www.w3.org/2000/svg" xmlns:xlink="http://www.w3.org/1999/xlink" width="1024" height="1024" viewBox="0 0 1024 1024"><path fill="white" d="M0 0L1024 0L1024 1024L0 1024L0 0Z"/><path fill="#4A2C6E" d="M372.519 273.056L429.494 273.096L429.431 603.736L429.431 699.984C429.437 716.371 429.859 734.362 429.358 750.617L372.531 750.939L372.519 273.056Z"/><path fill="#4A2C6E" d="M651.304 440.381C652.659 444.605 651.709 492.935 651.733 500.553L651.629 750.737L595.484 750.71C594.936 747.371 595.085 731.405 595.071 727.214L594.997 677.463L595.126 497.768C613.491 480.728 632.188 457.074 651.304 440.381Z"/><path fill="#C8A84B" d="M749.02 298.395C750.167 299.296 749.829 298.729 750.104 300.13C748.772 302.853 738.126 314.459 735.283 317.689L697.575 360.251C634.404 431.554 570.771 502.446 506.679 572.921C490.788 555.133 473.174 536.469 456.823 519.041C452.474 514.58 448.203 510.044 444.013 505.434C452.434 495.832 461.593 486.944 469.993 477.225C481.514 490.405 496.384 508.284 508.406 520.448C515.681 513.152 522.874 505.78 530.131 498.468C562.256 466.095 596.531 435.646 630.453 405.188L749.02 298.395Z"/><path fill="#4A2C6E" d="M594.97 273.157L651.673 273.118C651.904 302.726 651.958 332.334 651.837 361.943C647.274 367.912 630.916 383.158 624.619 389.198C614.827 398.75 604.951 408.217 594.993 417.596L594.97 273.157Z"/></svg>