<?xml version="1.0" encoding="utf-8" ?><svg xmlns="http://www.w3.org/2000/svg" xmlns:xlink="http://www.w3.org/1999/xlink" width="389" height="422" viewBox="99 65 389 422"><path d="M370.016 251.369C370.736 245.1 372.599 238.944 373.991 232.804C379.073 210.39 385.75 188.35 392.591 166.416C394.459 160.424 395.993 154.278 397.913 148.295C402.142 135.483 406.872 122.843 412.093 110.402C416.569 99.7848 421.143 89.7762 427.512 79.9955C430.795 74.9544 435.648 72.7165 440.222 78.2764C443.067 81.735 441.404 90.0167 437.712 92.3488C436.942 92.8805 435.14 92.967 434.194 93.0296C426.064 104.979 416.45 133.039 411.539 147.018C408.321 156.176 403.815 169.24 401.379 178.641C400.035 182.187 399.142 186.19 398.049 189.858C394.294 202.462 390.73 215.202 387.18 227.866C385.139 235.144 383.903 242.701 381.573 249.946C392.268 248.862 402.486 247.456 413.068 246.186C425.198 244.829 437.316 243.364 449.419 241.79L472.264 238.834C477.686 238.097 493.275 235.294 497.616 236.9C497.299 237.724 497.019 239.007 496.234 239.234C490.988 240.749 485.577 242.093 480.22 243.14C478.955 243.387 475.808 242.895 474.848 243.295C467.444 246.381 460.813 247.065 452.974 248.411C443.679 250.101 434.359 251.658 425.019 253.081C409.93 255.488 394.38 258.29 379.205 260.11C375.995 275.186 372.624 290.242 369.688 305.372C368.241 312.829 367.151 320.332 365.742 327.789C359.917 358.626 354.373 389.652 350.989 420.866C350.351 426.759 350.081 432.739 349.586 438.652C348.959 446.157 348.866 453.937 348.735 461.471C348.684 464.405 349.211 467.731 348.577 470.582C348.146 472.524 347.099 474.2 345.452 475.335C343.9 476.405 341.851 476.89 339.998 476.462C338.359 476.083 337.021 475.035 336.213 473.565C334.635 470.69 334.645 454.161 334.194 449.762C332.297 431.261 325.683 413.99 316.14 398.113C314.546 395.461 312.631 391.654 310.455 389.523C306.206 381.839 289.009 363.442 281.168 359.337C281.034 364.203 277.971 375.353 276.352 380.099C275.302 383.569 274.172 391.446 271.239 393.765C269.736 394.954 264.138 395.68 262.662 393.611C261.733 388.457 264.347 381.048 265.407 375.846C267.07 367.675 268.794 359.458 270.755 351.357C244.368 334.39 215.145 322.307 184.482 315.687C161.852 310.987 139.701 308.687 116.786 306.402C115.437 306.267 112.499 305.845 111.743 304.748C107.565 298.686 109.129 293.601 116.279 291.358C142.307 284.632 170.133 280.894 196.614 277.195C227.595 272.83 258.535 268.177 289.429 263.237C291.011 259.722 293.512 245.716 294.515 241.05L301.47 207.864C302.456 203.039 303.738 197.827 304.507 193.024C305.389 188.822 310.68 170.958 309.438 168.596C307.534 169.933 300.308 185.835 298.285 188.874C293.936 195.408 270.927 234.065 263.796 232.743L263.488 232.073C263.841 227.61 281.224 204.226 284.714 198.354C292.442 185.351 298.641 173.508 305.112 159.781C313.649 141.709 321.194 122.033 326.236 102.674C326.795 100.527 327.241 98.4609 327.912 96.3286C333.809 91.4114 341.865 93.9471 340.449 102.172C336.981 122.312 330.934 141.888 325.801 161.639C319.154 188.894 313.354 216.477 306.928 243.805C305.659 249.285 304.499 254.791 303.488 260.297C310.923 260.54 329.108 257.164 337.194 256.099C343.534 255.264 365.417 253.23 370.016 251.369ZM320.27 387.815C326.695 397.042 331.956 405.282 336.405 415.661C337.344 417.85 337.845 421.05 339.263 421.667C341.263 420.646 342.04 410.574 342.396 408.122C343.582 400.351 344.702 392.57 345.759 384.779C346.19 381.45 346.367 377.655 346.886 374.474C349.375 359.211 351.773 343.953 354.529 328.731C355.162 325.234 356.478 321.58 357.086 318.127C357.635 315.014 357.932 311.708 358.437 308.552C359.591 301.601 360.864 294.671 362.258 287.765C362.843 284.982 367.48 263.404 366.785 262.002C365.994 261.981 366.094 261.921 365.351 262.101C343.355 265.051 322.712 268.496 300.915 271.74C297.367 289.282 292.316 306.541 289.103 324.184C287.73 331.729 285.22 338.984 283.585 346.459C283.389 347.135 283.313 349.421 283.807 349.933C287.509 353.775 291.984 357.084 296.072 360.577C305.879 368.954 312.817 377.267 320.27 387.815ZM180.295 305.714C187.163 307.369 194.526 308.93 201.289 310.813C215.946 314.922 230.197 320.364 243.862 327.073C250.115 330.11 256.291 333.306 262.383 336.656C265.116 338.178 270.265 341.467 272.839 342.474C274.221 337.274 287.974 275.729 287.482 274.141C287.043 274.103 286.976 274.032 286.61 274.161L243.974 281.211C232.569 282.995 145.148 295.518 142.578 298.754L142.801 299.199C155.542 301.615 167.397 302.793 180.295 305.714ZM282.186 316.164C283.358 314.586 285.607 308.425 282.801 307.613C281.301 308.96 281.054 312.479 280.847 314.442C280.744 315.416 281.471 315.754 282.186 316.164Z"/><path fill="#8D8A8A" fill-opacity="0.98823529" d="M282.801 307.613C285.607 308.425 283.358 314.586 282.186 316.164C281.471 315.754 280.744 315.416 280.847 314.442C281.054 312.479 281.301 308.96 282.801 307.613Z"/></svg>